<svg viewBox="0 0 41.1431 48" xmlns="http://www.w3.org/2000/svg"><path d="m41.1431 24.9912v16.1519h-3.4287v3.4287a3.4288 3.4288 0 0 1 -6.8575 0v-3.4287h-20.5713v3.4287a3.3029 3.3029 0 0 1 -1.0044 2.4238 3.3025 3.3025 0 0 1 -2.4243 1.0044 3.3014 3.3014 0 0 1 -2.4238-1.0044 3.3014 3.3014 0 0 1 -1.0044-2.4238v-3.4287h-3.4287v-16.1519a27.1144 27.1144 0 0 1 .6694-5.9731l2.7593-12.1607a5.2148 5.2148 0 0 1 2.6113-3.6699 17.6962 17.6962 0 0 1 6.1607-2.3838 40.4366 40.4366 0 0 1 8.3706-.8037 40.4339 40.4339 0 0 1 8.3706.8037 17.6909 17.6909 0 0 1 6.1606 2.3838 5.2141 5.2141 0 0 1 2.6119 3.67l2.8125 12.1607a27.1657 27.1657 0 0 1 .6162 5.973zm-31.8619 10.0044a3.4273 3.4273 0 0 0 0-4.8481 3.304 3.304 0 0 0 -2.4243-1.0044 3.3029 3.3029 0 0 0 -2.4238 1.0044 3.4273 3.4273 0 0 0 0 4.8481 3.3014 3.3014 0 0 0 2.4238 1.0044 3.3025 3.3025 0 0 0 2.4243-1.0044zm27.2007-13.0312-1.9282-10.2857a1.7521 1.7521 0 0 0 -.603-1.0044 1.65 1.65 0 0 0 -1.0845-.3882h-24.5893a1.65 1.65 0 0 0 -1.085.3882 1.7461 1.7461 0 0 0 -.6025 1.0044l-1.9288 10.2857a1.6945 1.6945 0 0 0 .375 1.42 1.6242 1.6242 0 0 0 1.3125.6156h28.4463a1.6239 1.6239 0 0 0 1.3125-.6157 1.6939 1.6939 0 0 0 .375-1.4199zm-6.4282-15.482a1.2932 1.2932 0 0 0 0-1.8213 1.2408 1.2408 0 0 0 -.9106-.375h-17.1431a1.28 1.28 0 0 0 -1.2856 1.2857 1.28 1.28 0 0 0 1.2856 1.2856h17.1431a1.2408 1.2408 0 0 0 .9106-.375zm6.6563 28.5132a3.4275 3.4275 0 1 0 -2.4244 1.0044 3.3025 3.3025 0 0 0 2.4244-1.0044z" fill="#dc559a"/></svg>