<svg viewBox="0 0 34.2856 34.2856" xmlns="http://www.w3.org/2000/svg"><path d="m27.8565 0a6.1947 6.1947 0 0 1 4.5427 1.8864 6.191 6.191 0 0 1 1.8864 4.5427v21.4291a6.4379 6.4379 0 0 1 -6.4291 6.4274h-4.1959v-13.2813h4.4417l.6706-5.1774h-5.1123v-3.3041a2.86 2.86 0 0 1 .5241-1.875 2.6035 2.6035 0 0 1 2.0426-.625l2.7227-.0228v-4.6207a30.0051 30.0051 0 0 0 -3.973-.2 6.635 6.635 0 0 0 -4.8552 1.7854 6.753 6.753 0 0 0 -1.818 5.0456v3.8168h-4.4638v5.1774h4.4645v13.2811h-11.8754a6.1932 6.1932 0 0 1 -4.5427-1.8848 6.191 6.191 0 0 1 -1.8864-4.5426v-21.4291a6.191 6.191 0 0 1 1.8864-4.5427 6.1947 6.1947 0 0 1 4.5427-1.8864z" fill="#dc559a"/></svg>