<svg viewBox="0 0 42.8569 41.1431" xmlns="http://www.w3.org/2000/svg"><path d="m11.1431 18.8574v17.1426a1.7386 1.7386 0 0 1 -1.7144 1.7144h-7.7143a1.6468 1.6468 0 0 1 -1.2056-.5088 1.6468 1.6468 0 0 1 -.5088-1.2056v-17.1426a1.6472 1.6472 0 0 1 .5088-1.2055 1.6484 1.6484 0 0 1 1.2056-.5088h7.7143a1.7386 1.7386 0 0 1 1.7144 1.7143zm-4.2862 13.7139a1.7377 1.7377 0 0 0 -1.7138-1.7139 1.6349 1.6349 0 0 0 -1.2188.5088 1.7076 1.7076 0 0 0 1.2188 2.9194 1.6667 1.6667 0 0 0 1.205-.4956 1.6347 1.6347 0 0 0 .5088-1.2187zm36-13.7139a5.8715 5.8715 0 0 1 -1.4731 3.9907 6.4657 6.4657 0 0 1 .4018 2.0357 5.5593 5.5593 0 0 1 -1.1518 3.67 5.501 5.501 0 0 1 0 3.1338 5.213 5.213 0 0 1 -1.4463 2.5181 6.4355 6.4355 0 0 1 -1.3125 4.8481 6.657 6.657 0 0 1 -5.2769 2.0894h-3.455a19.8882 19.8882 0 0 1 -3.8575-.4156q-2.0887-.4152-3.2544-.7763t-3.2275-1.0581a19.5843 19.5843 0 0 0 -4.2324-1.1787 1.7692 1.7692 0 0 1 -1.2051-.5225 1.6029 1.6029 0 0 1 -.5093-1.192v-17.1694a1.62 1.62 0 0 1 .4825-1.1656 1.7589 1.7589 0 0 1 1.1518-.5488q.6423-.0534 2.0357-1.5806t2.705-3.2407a39.5013 39.5013 0 0 1 2.7056-3.2143 4.1152 4.1152 0 0 0 .8306-1.2857 8.6766 8.6766 0 0 0 .4687-1.2993q.12-.4951.3613-1.6206.1875-1.0444.335-1.6338a7.8969 7.8969 0 0 1 .5225-1.3931 4.6438 4.6438 0 0 1 .9106-1.3393 1.6474 1.6474 0 0 1 1.2051-.5088 8 8 0 0 1 2.21.2812 5.8807 5.8807 0 0 1 1.607.6963 3.78 3.78 0 0 1 1.0717 1.085 6.2207 6.2207 0 0 1 .6425 1.2056 6.69 6.69 0 0 1 .3218 1.3393 11.6785 11.6785 0 0 1 .1338 1.2051q.0132.4021.0132 1.0449a8.3772 8.3772 0 0 1 -.2544 2.0357 10.88 10.88 0 0 1 -.5088 1.6069q-.2548.59-.7368 1.5c-.0532.1074-.1431.2681-.2676.4824a4.44 4.44 0 0 0 -.2949.5889 6.7592 6.7592 0 0 0 -.2144.6431h7.42a5.2136 5.2136 0 0 1 5.1425 5.143z" fill="#dc559a"/></svg>