<svg viewBox="0 0 41.1431 41.1431" xmlns="http://www.w3.org/2000/svg"><path d="m41.1431 20.5713q0 6.1347-.1343 8.4912-.268 5.5716-3.3213 8.625t-8.625 3.3213q-2.3577.134-8.4912.1343t-8.4907-.1343q-5.5723-.268-8.625-3.3213-3.0543-3.0534-3.3218-8.625-.1338-2.3569-.1338-8.4912t.1338-8.4907q.2673-5.5716 3.3218-8.625t8.625-3.3218q2.3562-.1338 8.4907-.1338t8.4912.1338q5.5709.2681 8.625 3.3218t3.3213 8.625q.134 2.3569.1343 8.4907zm-18.5225-16.8882q-1.8618.0139-2.0493.0132t-2.0488-.0132q-1.8626-.0132-2.8262 0t-2.5845.0806a21.2234 21.2234 0 0 0 -2.7593.2675 10.7244 10.7244 0 0 0 -1.915.4957 7.0156 7.0156 0 0 0 -3.9106 3.9106 10.7045 10.7045 0 0 0 -.4957 1.915 21.2305 21.2305 0 0 0 -.268 2.7593q-.0666 1.6209-.08 2.5845t0 2.8262q.0132 1.8618.0132 2.0488t-.0132 2.0493q-.0139 1.8618 0 2.8257t.08 2.5849a21.2129 21.2129 0 0 0 .268 2.7588 10.6987 10.6987 0 0 0 .4957 1.9156 7.0156 7.0156 0 0 0 3.9106 3.9106 10.725 10.725 0 0 0 1.915.4956 21.204 21.204 0 0 0 2.7593.2676q1.62.0674 2.5845.0806t2.8262 0q1.861-.0132 2.0488-.0137t2.0493.0137q1.8611.0138 2.8257 0t2.5849-.0806a21.2188 21.2188 0 0 0 2.7588-.2676 10.7648 10.7648 0 0 0 1.9156-.4956 7.0156 7.0156 0 0 0 3.9106-3.9106 10.7848 10.7848 0 0 0 .4956-1.9156 21.2906 21.2906 0 0 0 .2676-2.7588q.0666-1.62.0806-2.5849t0-2.8257q-.014-1.8611-.0137-2.0493t.0137-2.0488q.0132-1.862 0-2.8262t-.0806-2.5845a21.3084 21.3084 0 0 0 -.2676-2.7593 10.7908 10.7908 0 0 0 -.4956-1.915 7.0156 7.0156 0 0 0 -3.9106-3.9106 10.7641 10.7641 0 0 0 -1.9156-.4957 21.2382 21.2382 0 0 0 -2.7588-.2675q-1.6212-.0667-2.5849-.0806t-2.8257 0zm5.4238 9.415a10.1765 10.1765 0 0 1 3.0806 7.4732 10.5172 10.5172 0 0 1 -10.5537 10.5537 10.5162 10.5162 0 0 1 -10.5532-10.5537 10.516 10.516 0 0 1 10.5532-10.5532 10.1768 10.1768 0 0 1 7.4731 3.08zm-2.625 12.3219a6.8542 6.8542 0 0 0 0-9.6968 6.6057 6.6057 0 0 0 -4.8481-2.0087 6.8581 6.8581 0 0 0 -6.8569 6.8569 6.8583 6.8583 0 0 0 6.8569 6.8574 6.6073 6.6073 0 0 0 4.8481-2.0088zm7.875-17.5718a2.4566 2.4566 0 0 1 0 3.4825 2.4641 2.4641 0 0 1 -4.205-1.7412 2.4621 2.4621 0 0 1 4.205-1.7413z" fill="#eac3d9"/></svg>