<svg id="logo" xmlns="http://www.w3.org/2000/svg" viewBox="0 0 286.05 114.9941"><defs><style>.cls-1{fill:#fff;}</style></defs><g id="copy"><path class="cls-1" d="M66.4008,114.9887q-.6162,0-1.2356-.0489A15.4543,15.4543,0,0,1,62.9468,84.464a27.1115,27.1115,0,1,0-32.414-32.4048A15.4544,15.4544,0,1,1,.3667,45.3241L.383,45.252a58.0188,58.0188,0,1,1,69.3686,69.3692H69.75A15.3929,15.3929,0,0,1,66.4008,114.9887ZM57,29.1353q1.1152,0,2.241.0879A28.8827,28.8827,0,0,1,63.3438,86.19a13.6834,13.6834,0,0,0,1.96,26.9846,13.85,13.85,0,0,0,4.0583-.282h0A56.2509,56.2509,0,1,0,2.1112,45.6408a13.683,13.683,0,1,0,26.685,6.067l.0078-.0345A29.0106,29.0106,0,0,1,57,29.1353Z" transform="translate(0.008 0.0054)"/><path class="cls-1" d="M65.4857,109.2872q-.5567,0-1.1165-.0439a13.9979,13.9979,0,0,1-2.01-27.6037A24.3118,24.3118,0,1,0,33.2927,52.5805,13.9974,13.9974,0,1,1,5.9714,46.4769l.0137-.0608a52.3055,52.3055,0,1,1,62.5382,62.5376l-.2808-1.2453.279,1.2453A13.8886,13.8886,0,0,1,65.4857,109.2872ZM57.0278,31.8414q1.0064,0,2.0231.0794a26.0832,26.0832,0,0,1,3.7055,51.445,12.2289,12.2289,0,0,0,5.3781,23.8591h0A50.5374,50.5374,0,1,0,7.7133,46.8043a12.2261,12.2261,0,0,0,23.8323,5.471l.0183-.081A26.2,26.2,0,0,1,57.0278,31.8414Z" transform="translate(0.008 0.0054)"/><path class="cls-1" d="M64.6622,104.1555q-.5036,0-1.0091-.04a12.6864,12.6864,0,0,1-1.8216-25.0183A21.7922,21.7922,0,1,0,35.7772,53.05a12.686,12.686,0,0,1-25.0253-3.7661l0-.0034a12.9189,12.9189,0,0,1,.2753-1.8174,47.1635,47.1635,0,1,1,56.39,56.39h-.0018A12.5993,12.5993,0,0,1,64.6622,104.1555ZM57.0529,34.2766q.9093,0,1.8271.072a23.5636,23.5636,0,0,1,3.3477,46.4753,10.9153,10.9153,0,0,0,1.564,21.5259,11.0486,11.0486,0,0,0,3.2379-.2259A45.3949,45.3949,0,1,0,12.7557,47.8513a11.2343,11.2343,0,0,0-.2381,1.5682,10.9149,10.9149,0,0,0,21.5308,3.2446A23.67,23.67,0,0,1,57.0529,34.2766Z" transform="translate(0.008 0.0054)"/></g><g id="name"><path class="cls-1" d="M146.7158,9.34h-6.8594V26.98h-2.52V9.34h-6.86V7.1h16.24Z" transform="translate(0.008 0.0054)"/><path class="cls-1" d="M161.248,11.2718a4.1454,4.1454,0,0,0-.8955-.7559,8.06,8.06,0,0,0-1.26-.6582,8.8894,8.8894,0,0,0-1.5264-.476A7.9972,7.9972,0,0,0,155.8444,9.2a5.41,5.41,0,0,0-3.4023.8677,2.89,2.89,0,0,0-1.0781,2.38,2.6434,2.6434,0,0,0,.3086,1.3442,2.527,2.527,0,0,0,.9658.91,7.3436,7.3436,0,0,0,1.6377.6577q.98.2805,2.3242.5879a24.2451,24.2451,0,0,1,2.7861.77,8.1394,8.1394,0,0,1,2.1279,1.0781,4.3187,4.3187,0,0,1,1.3438,1.5679,5.0417,5.0417,0,0,1,.4619,2.2681,5.1945,5.1945,0,0,1-.56,2.478,4.9794,4.9794,0,0,1-1.5263,1.7363,6.6022,6.6022,0,0,1-2.2823,1.0078,12.0069,12.0069,0,0,1-2.8554.3218,13.1882,13.1882,0,0,1-4.3545-.7139,12.164,12.164,0,0,1-3.7383-2.0859l1.2041-2.1279a6.7094,6.7094,0,0,0,1.1621.9521,9.5291,9.5291,0,0,0,1.624.854,11.9766,11.9766,0,0,0,1.96.6157,9.9162,9.9162,0,0,0,2.1982.2383,6.0959,6.0959,0,0,0,3.3038-.7563,2.792,2.792,0,0,0,.7978-3.6817,3.2016,3.2016,0,0,0-1.1055-.9941,8.51,8.51,0,0,0-1.8056-.7422q-1.0782-.3216-2.45-.6577a24.5621,24.5621,0,0,1-2.66-.7842,7.2368,7.2368,0,0,1-1.9179-1.0078,3.7977,3.7977,0,0,1-1.1622-1.4282A4.732,4.732,0,0,1,148.76,12.84a5.69,5.69,0,0,1,.5313-2.52,5.2851,5.2851,0,0,1,1.4844-1.8476,6.4724,6.4724,0,0,1,2.2675-1.1343A10.3217,10.3217,0,0,1,155.9,6.96a10.0086,10.0086,0,0,1,6.5244,2.268Z" transform="translate(0.008 0.0054)"/><path class="cls-1" d="M174.8,24.8519a5.6434,5.6434,0,0,0,2.8848-.6719,5.335,5.335,0,0,0,1.834-1.75,7.22,7.22,0,0,0,.9658-2.4644,14.1811,14.1811,0,0,0,.2793-2.8139V7.1h2.52V17.1517a15.3889,15.3889,0,0,1-.4619,3.8222,9.13,9.13,0,0,1-1.47,3.1778,7.1018,7.1018,0,0,1-2.6181,2.17,8.729,8.729,0,0,1-3.9063.7983,8.6411,8.6411,0,0,1-4.0039-.84,7.2554,7.2554,0,0,1-2.6181-2.2256,9.0273,9.0273,0,0,1-1.4278-3.1924,15.7837,15.7837,0,0,1-.4345-3.71V7.1h2.52V17.1517a13.7691,13.7691,0,0,0,.2939,2.87,7.2705,7.2705,0,0,0,.98,2.45,5.2853,5.2853,0,0,0,1.82,1.7217A5.5889,5.5889,0,0,0,174.8,24.8519Z" transform="translate(0.008 0.0054)"/><path class="cls-1" d="M190.2842,11.804V26.98h-2.52V7.1h1.96l12.32,15.4839V7.1277h2.52V26.98h-2.128Z" transform="translate(0.008 0.0054)"/><path class="cls-1" d="M215.3711,7.1h2.1279l8.12,19.88h-2.6875l-2.3525-5.8242h-8.3437L209.911,26.98h-2.6875ZM220.02,19.1956l-3.584-9.1836L212.74,19.1956Z" transform="translate(0.008 0.0054)"/><path class="cls-1" d="M242.3076,24.2918A8.0544,8.0544,0,0,1,236.26,27.12a7.9584,7.9584,0,0,1-3.6827-.8681,9.7206,9.7206,0,0,1-2.9257-2.2818,10.9915,10.9915,0,0,1-1.9463-3.2343,10.191,10.191,0,0,1-.7139-3.752A10.5486,10.5486,0,0,1,229.623,9.97a9.1389,9.1389,0,0,1,2.9405-2.1982A8.5,8.5,0,0,1,236.26,6.96a8.5952,8.5952,0,0,1,4.7461,1.2041A7.9921,7.9921,0,0,1,243.8477,11.3l-1.9327,1.3443a6.0391,6.0391,0,0,0-2.38-2.5762,6.6428,6.6428,0,0,0-3.3321-.84,5.74,5.74,0,0,0-2.7441.6578,6.7509,6.7509,0,0,0-2.1,1.7363,7.9987,7.9987,0,0,0-1.3438,2.4917,9.11,9.11,0,0,0-.4765,2.9263,8.4787,8.4787,0,0,0,.5322,3.01,8.2469,8.2469,0,0,0,1.456,2.4922,6.758,6.758,0,0,0,2.1836,1.6939,6.162,6.162,0,0,0,2.7442.6162,7.5378,7.5378,0,0,0,5.8525-3.1363V18.972h-4.2842V17.0677h6.4121V26.98H242.307Z" transform="translate(0.008 0.0054)"/><path class="cls-1" d="M256.4463,24.8519a5.6434,5.6434,0,0,0,2.8848-.6719,5.3347,5.3347,0,0,0,1.8339-1.75,7.2182,7.2182,0,0,0,.9659-2.4644,14.1885,14.1885,0,0,0,.2793-2.8139V7.1h2.5205V17.1517a15.3936,15.3936,0,0,1-.4619,3.8222,9.13,9.13,0,0,1-1.47,3.1778,7.1026,7.1026,0,0,1-2.6181,2.17,8.7293,8.7293,0,0,1-3.9063.7983,8.6405,8.6405,0,0,1-4.0039-.84,7.2549,7.2549,0,0,1-2.6182-2.2256,9.0289,9.0289,0,0,1-1.4277-3.1924,15.7785,15.7785,0,0,1-.4346-3.71V7.1h2.52V17.1517a13.7624,13.7624,0,0,0,.294,2.87,7.2676,7.2676,0,0,0,.98,2.45,5.2853,5.2853,0,0,0,1.82,1.7217A5.588,5.588,0,0,0,256.4463,24.8519Z" transform="translate(0.008 0.0054)"/><path class="cls-1" d="M132.38,68.98V49.1h8.2881a5.3939,5.3939,0,0,1,2.4218.5459,6.0936,6.0936,0,0,1,1.9043,1.4561,6.9511,6.9511,0,0,1,1.2461,2.0439,6.2526,6.2526,0,0,1,.4483,2.31,6.8627,6.8627,0,0,1-.4209,2.38,6.5608,6.5608,0,0,1-1.1895,2.0439,5.79,5.79,0,0,1-1.8476,1.4282,5.3447,5.3447,0,0,1-2.3946.5318H134.9v7.14Zm2.52-9.38h5.7959a3.0607,3.0607,0,0,0,1.4141-.3226,3.2042,3.2042,0,0,0,1.0781-.8959,4.4149,4.4149,0,0,0,.6992-1.33,5.0113,5.0113,0,0,0,.2519-1.5957,4.4358,4.4358,0,0,0-.2939-1.6241,4.377,4.377,0,0,0-.7842-1.3159,3.4582,3.4582,0,0,0-1.1474-.8681,3.232,3.232,0,0,0-1.3858-.3081H134.9Z" transform="translate(0.008 0.0054)"/><path class="cls-1" d="M165.8115,49.1V68.98h-2.52v-9.044H152.3438V68.98h-2.5206V49.1h2.5206v8.5957H163.291V49.1Z" transform="translate(0.008 0.0054)"/><path class="cls-1" d="M176.6191,49.1h2.128l8.12,19.88H184.18l-2.3526-5.8242h-8.3437L171.16,68.98H168.472Zm4.6485,12.0957-3.584-9.1836-3.6963,9.1836Z" transform="translate(0.008 0.0054)"/><path class="cls-1" d="M189.5273,68.98V49.1h8.5118a5.3984,5.3984,0,0,1,2.4228.5459,6.102,6.102,0,0,1,1.9033,1.4561,6.9511,6.9511,0,0,1,1.2461,2.0439,6.2313,6.2313,0,0,1,.4483,2.31,6.8261,6.8261,0,0,1-.294,2.0019,6.22,6.22,0,0,1-.84,1.75,5.6148,5.6148,0,0,1-1.3164,1.3438,5.1305,5.1305,0,0,1-1.7217.812l4.8154,7.6162h-2.8554l-4.5362-7.14h-5.2636v7.14Zm2.5206-9.38h6.0195a2.9626,2.9626,0,0,0,1.414-.3359,3.3673,3.3673,0,0,0,1.0782-.91,4.4215,4.4215,0,0,0,.7-1.33,4.9254,4.9254,0,0,0,.2519-1.5678,4.2689,4.2689,0,0,0-.2939-1.5821,4.6643,4.6643,0,0,0-.7842-1.3159,3.5663,3.5663,0,0,0-1.1484-.896,3.1165,3.1165,0,0,0-1.3858-.3222h-5.8515Z" transform="translate(0.008 0.0054)"/><path class="cls-1" d="M225.1152,68.98V53.6077l-6.6084,11.7881h-1.4277l-6.6357-11.7881V68.98h-2.52V49.1h2.66l7.1959,12.9074L225.0029,49.1h2.6319V68.98Z" transform="translate(0.008 0.0054)"/><path class="cls-1" d="M238.4424,49.1H240.57l8.12,19.88h-2.6875L243.65,63.1556h-8.3438L232.982,68.98h-2.6875Zm4.6484,12.0957-3.584-9.1836-3.6963,9.1836Z" transform="translate(0.008 0.0054)"/><path class="cls-1" d="M250.0625,58.9a10.6278,10.6278,0,0,1,.63-3.57,9.9174,9.9174,0,0,1,1.8486-3.1919,9.303,9.303,0,0,1,2.9815-2.2822,8.9563,8.9563,0,0,1,4.0039-.8682,8.3678,8.3678,0,0,1,4.5644,1.2041,7.4871,7.4871,0,0,1,2.8281,3.1362l-1.9882,1.2881a5.7794,5.7794,0,0,0-1.0782-1.5962,5.5539,5.5539,0,0,0-1.372-1.0361,5.9208,5.9208,0,0,0-1.5254-.56,7.3565,7.3565,0,0,0-1.54-.1679,6.0828,6.0828,0,0,0-2.9267.686,6.758,6.758,0,0,0-2.1416,1.792,7.7378,7.7378,0,0,0-1.3018,2.4922,9.2558,9.2558,0,0,0-.4345,2.7861,8.5923,8.5923,0,0,0,.5185,2.982A8.2178,8.2178,0,0,0,254.5705,64.5a7.0262,7.0262,0,0,0,2.1846,1.7359,5.9355,5.9355,0,0,0,2.7441.644,6.9423,6.9423,0,0,0,1.6094-.1958,5.8754,5.8754,0,0,0,1.582-.63,6.7512,6.7512,0,0,0,1.4141-1.0923,5.3328,5.3328,0,0,0,1.0781-1.582l2.1,1.1479a6.1974,6.1974,0,0,1-1.3291,1.9742,8.425,8.425,0,0,1-1.9326,1.4419,9.8239,9.8239,0,0,1-2.2821.896,9.4556,9.4556,0,0,1-2.3516.3081,7.9461,7.9461,0,0,1-3.7519-.896,10.0039,10.0039,0,0,1-2.9541-2.3379A10.8818,10.8818,0,0,1,250.0632,58.9Z" transform="translate(0.008 0.0054)"/><path class="cls-1" d="M271.2021,49.1l6.0206,10.36,6.0761-10.36h2.7432l-7.56,12.6279V68.98h-2.52V61.6717L268.43,49.1Z" transform="translate(0.008 0.0054)"/></g><g id="mark"><path class="cls-1" d="M130.1123,87.324V79.5145h2.6514a4.0266,4.0266,0,0,1,1.6338.3076,3.3224,3.3224,0,0,1,1.166.8359,3.5336,3.5336,0,0,1,.7041,1.2373,4.77,4.77,0,0,1,.2363,1.5127,4.6614,4.6614,0,0,1-.2637,1.6113,3.5087,3.5087,0,0,1-.7539,1.2325,3.3765,3.3765,0,0,1-1.1767.792,4.0718,4.0718,0,0,1-1.5459.28Zm5.6211-3.916a4.0413,4.0413,0,0,0-.1973-1.2929,2.9309,2.9309,0,0,0-.5781-1.0167,2.5868,2.5868,0,0,0-.93-.666,3.1838,3.1838,0,0,0-1.2646-.2363h-1.8809v6.4463h1.8809a3.1171,3.1171,0,0,0,1.2812-.2481,2.6015,2.6015,0,0,0,.93-.6816,2.96,2.96,0,0,0,.5664-1.0234A4.08,4.08,0,0,0,135.7334,83.408Z" transform="translate(0.008 0.0054)"/><path class="cls-1" d="M137.8242,80.3943v-1.1h.7481v1.1Zm0,6.93V81.5926h.7481V87.324Z" transform="translate(0.008 0.0054)"/><path class="cls-1" d="M142.124,87.4344a3.99,3.99,0,0,1-1.3086-.2207,3.1245,3.1245,0,0,1-1.1-.6377l.3408-.5059a3.7238,3.7238,0,0,0,.9844.5938,2.8937,2.8937,0,0,0,1.0723.1982,1.9385,1.9385,0,0,0,1.1055-.28.9087.9087,0,0,0,.413-.7978.6935.6935,0,0,0-.11-.4014.948.948,0,0,0-.3242-.28,2.54,2.54,0,0,0-.5391-.2149q-.3252-.0937-.7539-.1924c-.33-.081-.6162-.1611-.8574-.2422a2.549,2.549,0,0,1-.6-.2753.989.989,0,0,1-.3526-.379,1.2336,1.2336,0,0,1-.1152-.5664,1.6207,1.6207,0,0,1,.1709-.7588,1.5354,1.5354,0,0,1,.4619-.5449,2.1032,2.1032,0,0,1,.6816-.3242,3.0543,3.0543,0,0,1,.83-.11,3.2041,3.2041,0,0,1,1.1992.2148,2.3662,2.3662,0,0,1,.8692.5664l-.3633.44a1.9972,1.9972,0,0,0-.7754-.4942,2.7667,2.7667,0,0,0-.9512-.165,2.3663,2.3663,0,0,0-.55.06,1.3349,1.3349,0,0,0-.4453.1933.9383.9383,0,0,0-.3027.335.9943.9943,0,0,0-.11.4785.7788.7788,0,0,0,.0772.374.6567.6567,0,0,0,.2529.2481,2.0587,2.0587,0,0,0,.4453.1865c.18.0547.3985.1123.6543.1709q.5506.1319.9687.2637a3.0511,3.0511,0,0,1,.6982.3076,1.2264,1.2264,0,0,1,.4238.43,1.2388,1.2388,0,0,1,.1426.6152,1.4978,1.4978,0,0,1-.6045,1.2549A2.6235,2.6235,0,0,1,142.124,87.4344Z" transform="translate(0.008 0.0054)"/><path class="cls-1" d="M148.5049,87.4344a2.26,2.26,0,0,1-1.2813-.3692,2.9108,2.9108,0,0,1-.8965-.93v3.532h-.748V81.5926h.6709v1.1113a2.7715,2.7715,0,0,1,.9131-.874,2.3365,2.3365,0,0,1,1.2207-.3359,2.3993,2.3993,0,0,1,1.0889.248,2.7971,2.7971,0,0,1,.8584.6592,3.0713,3.0713,0,0,1,.5664.9521,3.1163,3.1163,0,0,1,.2031,1.11,3.4859,3.4859,0,0,1-.1865,1.1445,2.9394,2.9394,0,0,1-.5332.9463,2.5816,2.5816,0,0,1-.8252.6426A2.3368,2.3368,0,0,1,148.5049,87.4344Zm-.209-.66a1.7964,1.7964,0,0,0,.8418-.1982,2.0832,2.0832,0,0,0,.6484-.5225,2.3444,2.3444,0,0,0,.4131-.7373,2.593,2.593,0,0,0,.1426-.8525,2.427,2.427,0,0,0-.6162-1.6162,2.1461,2.1461,0,0,0-.6758-.5069,1.9338,1.9338,0,0,0-.8418-.1865,1.73,1.73,0,0,0-.6.1152,2.451,2.451,0,0,0-.583.3086,2.0652,2.0652,0,0,0-.4619.45,1.2134,1.2134,0,0,0-.2364.545v1.76a2.6021,2.6021,0,0,0,.335.5723,2.3753,2.3753,0,0,0,.4619.456,2.1986,2.1986,0,0,0,.5557.3028,1.7628,1.7628,0,0,0,.6166.11Z" transform="translate(0.008 0.0054)"/><path class="cls-1" d="M154.8408,87.4344a2.7489,2.7489,0,0,1-1.1494-.2373,2.8148,2.8148,0,0,1-.9072-.6485,3.0022,3.0022,0,0,1-.6-.9511,3.1063,3.1063,0,0,1-.2149-1.1553,3.0321,3.0321,0,0,1,.2149-1.1387,2.9393,2.9393,0,0,1,.5937-.9345,2.8338,2.8338,0,0,1,.9072-.6387,2.9016,2.9016,0,0,1,2.294,0,2.7334,2.7334,0,0,1,.8965.6435,3.0242,3.0242,0,0,1,.792,2.0577v.1757a.4648.4648,0,0,1-.0108.1211H152.751a2.4228,2.4228,0,0,0,.2148.8526,2.3529,2.3529,0,0,0,.4668.6758,2.0923,2.0923,0,0,0,.6553.4462,1.9526,1.9526,0,0,0,.7861.1592,2.0179,2.0179,0,0,0,.55-.0771,2.1859,2.1859,0,0,0,.5059-.209,1.871,1.871,0,0,0,.418-.3242,1.381,1.381,0,0,0,.2861-.4239l.6494.1758a1.914,1.914,0,0,1-.374.5781,2.6385,2.6385,0,0,1-.5615.4512,2.78,2.78,0,0,1-.7041.2969A3.0659,3.0659,0,0,1,154.8408,87.4344Zm2.1123-3.2783a2.3226,2.3226,0,0,0-.2148-.8418,2.2837,2.2837,0,0,0-.4619-.6543,2.035,2.035,0,0,0-1.4356-.583,2.0624,2.0624,0,0,0-.792.1543,2.0191,2.0191,0,0,0-.6543.4287,2.0956,2.0956,0,0,0-.4511.66,2.4956,2.4956,0,0,0-.2032.836Z" transform="translate(0.008 0.0054)"/><path class="cls-1" d="M163.6406,87.324h-.748V84.1229a2.7958,2.7958,0,0,0-.3018-1.4844,1.0337,1.0337,0,0,0-.93-.4629,1.92,1.92,0,0,0-.66.1211,2.2082,2.2082,0,0,0-.61.3418,2.6014,2.6014,0,0,0-.501.5225,2.0373,2.0373,0,0,0-.3183.6542V87.324h-.7481V81.5926h.6817v1.2988a2.6934,2.6934,0,0,1,1.0068-1.0127,2.768,2.768,0,0,1,1.4248-.3847,1.6913,1.6913,0,0,1,.8028.1757,1.3744,1.3744,0,0,1,.5273.4952,2.2686,2.2686,0,0,1,.2861.7812,5.4852,5.4852,0,0,1,.0879,1.0225Z" transform="translate(0.008 0.0054)"/><path class="cls-1" d="M167.1387,87.4344a3.99,3.99,0,0,1-1.3086-.2207,3.1245,3.1245,0,0,1-1.1-.6377l.3408-.5059a3.7238,3.7238,0,0,0,.9844.5938,2.8935,2.8935,0,0,0,1.0722.1982,1.9383,1.9383,0,0,0,1.1055-.28.9085.9085,0,0,0,.4131-.7978.6918.6918,0,0,0-.11-.4014.945.945,0,0,0-.3242-.28,2.5393,2.5393,0,0,0-.539-.2149q-.3252-.0937-.754-.1924c-.33-.081-.6162-.1611-.8574-.2422a2.549,2.549,0,0,1-.6-.2753.9873.9873,0,0,1-.3525-.379,1.2324,1.2324,0,0,1-.1153-.5664,1.6231,1.6231,0,0,1,.1709-.7588,1.5357,1.5357,0,0,1,.462-.5449,2.1032,2.1032,0,0,1,.6816-.3242,3.0543,3.0543,0,0,1,.83-.11,3.2058,3.2058,0,0,1,1.1992.2148,2.365,2.365,0,0,1,.8691.5664l-.3632.44a1.9983,1.9983,0,0,0-.7754-.4942,2.7662,2.7662,0,0,0-.9512-.165,2.3675,2.3675,0,0,0-.55.06,1.3309,1.3309,0,0,0-.4453.1933.94.94,0,0,0-.3028.335.9954.9954,0,0,0-.11.4785.78.78,0,0,0,.0771.374.6583.6583,0,0,0,.253.2481,2.0607,2.0607,0,0,0,.4453.1865c.18.0547.3984.1123.6543.1709.3672.0879.6894.1758.9687.2637a3.0537,3.0537,0,0,1,.6983.3076,1.2264,1.2264,0,0,1,.4238.43,1.241,1.241,0,0,1,.1426.6152,1.4984,1.4984,0,0,1-.6045,1.2549A2.624,2.624,0,0,1,167.1387,87.4344Z" transform="translate(0.008 0.0054)"/><path class="cls-1" d="M170.5938,80.3943v-1.1h.748v1.1Zm0,6.93V81.5926h.748V87.324Z" transform="translate(0.008 0.0054)"/><path class="cls-1" d="M177.8086,87.324h-.7481V84.1229a2.7948,2.7948,0,0,0-.3017-1.4844,1.0341,1.0341,0,0,0-.93-.4629,1.92,1.92,0,0,0-.66.1211,2.2082,2.2082,0,0,0-.61.3418,2.6014,2.6014,0,0,0-.501.5225,2.0332,2.0332,0,0,0-.3183.6542V87.324h-.7481V81.5926h.6817v1.2988a2.6934,2.6934,0,0,1,1.0068-1.0127,2.768,2.768,0,0,1,1.4248-.3847,1.6907,1.6907,0,0,1,.8027.1757,1.374,1.374,0,0,1,.5274.4952,2.2645,2.2645,0,0,1,.2861.7812,5.4852,5.4852,0,0,1,.0879,1.0225Z" transform="translate(0.008 0.0054)"/><path class="cls-1" d="M181.7031,87.4012a2.3691,2.3691,0,0,1-1.084-.2481,2.7909,2.7909,0,0,1-.8466-.6543,2.9975,2.9975,0,0,1-.5557-.9345,3.0819,3.0819,0,0,1-.1973-1.0889,3.3786,3.3786,0,0,1,.1924-1.1387,2.93,2.93,0,0,1,.544-.9521,2.6649,2.6649,0,0,1,.8418-.6485,2.4114,2.4114,0,0,1,1.083-.2421,2.21,2.21,0,0,1,1.2763.3681,3.5466,3.5466,0,0,1,.9239.93v-1.2h.6709v5.7539a2.3374,2.3374,0,0,1-.2256,1.05,2.2543,2.2543,0,0,1-.6045.7647,2.5779,2.5779,0,0,1-.8906.4619,3.7563,3.7563,0,0,1-1.084.1543,3.145,3.145,0,0,1-1.5948-.3526,2.8107,2.8107,0,0,1-.9794-.9453l.4619-.3633a2.0687,2.0687,0,0,0,.9023.8086,2.8628,2.8628,0,0,0,1.21.2588,2.6666,2.6666,0,0,0,.792-.1162,1.9491,1.9491,0,0,0,.6543-.3408,1.5935,1.5935,0,0,0,.4453-.5723,1.8539,1.8539,0,0,0,.165-.8076v-1.134a2.3855,2.3855,0,0,1-.9014.8691A2.4277,2.4277,0,0,1,181.7031,87.4012Zm.209-.627a1.8114,1.8114,0,0,0,.6494-.1211,2.1964,2.1964,0,0,0,.5772-.3242,2.1339,2.1339,0,0,0,.4345-.457,1.4019,1.4019,0,0,0,.23-.5166V83.5838a2.2051,2.2051,0,0,0-.33-.5713,2.2451,2.2451,0,0,0-.4726-.4512,2.3785,2.3785,0,0,0-.5664-.2968,1.8524,1.8524,0,0,0-1.4737.0927,2.0557,2.0557,0,0,0-.6435.5342,2.3293,2.3293,0,0,0-.4014.7481,2.6862,2.6862,0,0,0-.1377.8466,2.3664,2.3664,0,0,0,.1651.88,2.298,2.298,0,0,0,.456.7315,2.194,2.194,0,0,0,.6768.4951A1.934,1.934,0,0,0,181.9121,86.7742Z" transform="translate(0.008 0.0054)"/><path class="cls-1" d="M194.7373,87.4344a2.2591,2.2591,0,0,1-1.2812-.3692,2.9076,2.9076,0,0,1-.8965-.93v3.532h-.7481V81.5926h.6709v1.1113a2.7715,2.7715,0,0,1,.9131-.874,2.3376,2.3376,0,0,1,1.2207-.3359,2.3993,2.3993,0,0,1,1.0889.248,2.7944,2.7944,0,0,1,.8584.6592,3.0694,3.0694,0,0,1,.5664.9521,3.1163,3.1163,0,0,1,.2031,1.11,3.4859,3.4859,0,0,1-.1865,1.1445,2.9365,2.9365,0,0,1-.5332.9463,2.5816,2.5816,0,0,1-.8252.6426A2.3338,2.3338,0,0,1,194.7373,87.4344Zm-.209-.66a1.7964,1.7964,0,0,0,.8418-.1982,2.0836,2.0836,0,0,0,.6485-.5225,2.3452,2.3452,0,0,0,.413-.7373,2.593,2.593,0,0,0,.1426-.8525,2.427,2.427,0,0,0-.6162-1.6162,2.1461,2.1461,0,0,0-.6758-.5069,1.9338,1.9338,0,0,0-.8418-.1865,1.73,1.73,0,0,0-.6.1152,2.451,2.451,0,0,0-.583.3086,2.0652,2.0652,0,0,0-.4619.45,1.2138,1.2138,0,0,0-.2363.545v1.76a2.6017,2.6017,0,0,0,.3349.5723,2.3781,2.3781,0,0,0,.4619.456,2.1986,2.1986,0,0,0,.5557.3028,1.7655,1.7655,0,0,0,.6166.11Z" transform="translate(0.008 0.0054)"/><path class="cls-1" d="M203.416,87.324h-.748V84.1229a2.5854,2.5854,0,0,0-.335-1.4629,1.1227,1.1227,0,0,0-.9844-.4844,1.6858,1.6858,0,0,0-.6328.127,2.3783,2.3783,0,0,0-1.0664.8632,2.1577,2.1577,0,0,0-.3027.6494V87.324h-.7481v-8.03h.7481v3.5976a2.5894,2.5894,0,0,1,.9453-1.0234,2.4477,2.4477,0,0,1,1.31-.374,1.76,1.76,0,0,1,.8359.1816,1.5468,1.5468,0,0,1,.56.5059,2.2089,2.2089,0,0,1,.3194.7812,4.7331,4.7331,0,0,1,.0986,1.0059Z" transform="translate(0.008 0.0054)"/><path class="cls-1" d="M206.4521,87.4344a2.0171,2.0171,0,0,1-.7529-.1377,1.9119,1.9119,0,0,1-.6054-.38,1.7071,1.7071,0,0,1-.544-1.2646,1.4159,1.4159,0,0,1,.1758-.6934,1.6828,1.6828,0,0,1,.4951-.55,2.4142,2.4142,0,0,1,.7588-.3574,3.5045,3.5045,0,0,1,.9678-.127,5.3494,5.3494,0,0,1,.8916.0772,3.871,3.871,0,0,1,.8027.2207v-.5176a1.6659,1.6659,0,0,0-.4287-1.2041,1.5736,1.5736,0,0,0-1.1885-.4453,2.532,2.532,0,0,0-.9023.1758,4.3618,4.3618,0,0,0-.9346.5058l-.2637-.4951a3.8653,3.8653,0,0,1,2.1553-.748,2.3149,2.3149,0,0,1,1.6943.6054,2.2333,2.2333,0,0,1,.6162,1.6719v2.585q0,.3075.2745.3076v.66a1.72,1.72,0,0,1-.2852.0332.6438.6438,0,0,1-.4463-.1435.5325.5325,0,0,1-.17-.3955l-.0226-.4506a2.599,2.599,0,0,1-.9951.792A3.061,3.061,0,0,1,206.4521,87.4344Zm.1768-.5723a2.5865,2.5865,0,0,0,1.0723-.22,1.7593,1.7593,0,0,0,.7422-.583.6848.6848,0,0,0,.1484-.2149.5447.5447,0,0,0,.05-.2148v-.9346a4.4954,4.4954,0,0,0-.7754-.22,4.3071,4.3071,0,0,0-.8193-.0771,2.2739,2.2739,0,0,0-1.2871.33,1.0033,1.0033,0,0,0-.4952.8692,1.1722,1.1722,0,0,0,.1045.4941,1.2592,1.2592,0,0,0,.2862.4024,1.3541,1.3541,0,0,0,.4345.27A1.4737,1.4737,0,0,0,206.6289,86.8621Z" transform="translate(0.008 0.0054)"/><path class="cls-1" d="M213.8662,82.2527a2.3538,2.3538,0,0,0-1.3193.418,2.1072,2.1072,0,0,0-.792,1.0889V87.324h-.7481V81.5926h.7041v1.3746a2.5984,2.5984,0,0,1,.8575-1.0332,1.9829,1.9829,0,0,1,1.1552-.374.8015.8015,0,0,1,.1426.0107Z" transform="translate(0.008 0.0054)"/><path class="cls-1" d="M223.3926,87.324h-.7481V84.1229a2.68,2.68,0,0,0-.3183-1.4737,1.0677,1.0677,0,0,0-.9463-.4736,1.6133,1.6133,0,0,0-.6211.1211,1.9044,1.9044,0,0,0-.5391.3418,2.3043,2.3043,0,0,0-.4345.5225,2.5039,2.5039,0,0,0-.2862.665v3.498h-.748V84.1229a2.7514,2.7514,0,0,0-.3076-1.4844,1.0593,1.0593,0,0,0-.9463-.4629,1.6865,1.6865,0,0,0-1.1553.4512,2.516,2.516,0,0,0-.7256,1.1884V87.324h-.748V81.5926h.6816v1.2988a2.7142,2.7142,0,0,1,.9238-1.0293,2.2952,2.2952,0,0,1,1.2657-.3681,1.6286,1.6286,0,0,1,1.16.4072,1.7663,1.7663,0,0,1,.5332,1.0664,2.4488,2.4488,0,0,1,2.211-1.4736,1.7541,1.7541,0,0,1,.82.1757,1.3984,1.3984,0,0,1,.539.501,2.36,2.36,0,0,1,.2969.7813,5.1372,5.1372,0,0,1,.0928,1.0166Z" transform="translate(0.008 0.0054)"/><path class="cls-1" d="M226.418,87.4344a2.0176,2.0176,0,0,1-.753-.1377,1.9119,1.9119,0,0,1-.6054-.38,1.7071,1.7071,0,0,1-.544-1.2646,1.4159,1.4159,0,0,1,.1758-.6934,1.6828,1.6828,0,0,1,.4951-.55,2.4121,2.4121,0,0,1,.7588-.3574,3.5045,3.5045,0,0,1,.9678-.127,5.35,5.35,0,0,1,.8916.0772,3.871,3.871,0,0,1,.8027.2207v-.5176a1.6659,1.6659,0,0,0-.4287-1.2041,1.5736,1.5736,0,0,0-1.1885-.4453,2.5342,2.5342,0,0,0-.9023.1758,4.3618,4.3618,0,0,0-.9346.5058l-.2637-.4951a3.8653,3.8653,0,0,1,2.1553-.748,2.3153,2.3153,0,0,1,1.6944.6054,2.2336,2.2336,0,0,1,.6162,1.6719v2.585c0,.205.0918.3076.2744.3076v.66a1.72,1.72,0,0,1-.2852.0332.6436.6436,0,0,1-.4463-.1435.5331.5331,0,0,1-.17-.3955l-.0224-.4512a2.6,2.6,0,0,1-.9952.792A3.06,3.06,0,0,1,226.418,87.4344Zm.1767-.5723a2.5868,2.5868,0,0,0,1.0723-.22,1.7587,1.7587,0,0,0,.7422-.583.6848.6848,0,0,0,.1484-.2149.5464.5464,0,0,0,.05-.2148v-.9346a4.5,4.5,0,0,0-.7754-.22,4.3071,4.3071,0,0,0-.8193-.0771,2.2739,2.2739,0,0,0-1.2871.33,1.0032,1.0032,0,0,0-.4951.8692,1.1691,1.1691,0,0,0,.1045.4941,1.2547,1.2547,0,0,0,.2861.4024,1.3517,1.3517,0,0,0,.4346.27A1.4728,1.4728,0,0,0,226.5947,86.8621Z" transform="translate(0.008 0.0054)"/><path class="cls-1" d="M230.5762,84.4422a3.15,3.15,0,0,1,.209-1.1445,2.8825,2.8825,0,0,1,.5888-.9405,2.7442,2.7442,0,0,1,.9072-.6318,2.8766,2.8766,0,0,1,1.1661-.2314,2.6773,2.6773,0,0,1,1.4189.3681,2.37,2.37,0,0,1,.9131.9961l-.7256.2305a1.7481,1.7481,0,0,0-.6767-.6875,1.9987,1.9987,0,0,0-1.7823-.0713,2.1032,2.1032,0,0,0-.66.4785,2.2183,2.2183,0,0,0-.4395.7207,2.66,2.66,0,0,0,.0049,1.8262,2.3379,2.3379,0,0,0,.4512.7422,2.1489,2.1489,0,0,0,.666.4951,1.847,1.847,0,0,0,.8086.1816,1.9589,1.9589,0,0,0,.5439-.0771,2.0833,2.0833,0,0,0,.501-.2149,1.802,1.802,0,0,0,.3955-.3134,1.0154,1.0154,0,0,0,.2315-.3741l.7363.2207a1.863,1.863,0,0,1-.3516.5664,2.4648,2.4648,0,0,1-.5449.4512,2.7013,2.7013,0,0,1-.6924.2969,2.9639,2.9639,0,0,1-.7871.1045,2.7907,2.7907,0,0,1-2.0674-.8858,3.0069,3.0069,0,0,1-.6-.9511A3.1083,3.1083,0,0,1,230.5762,84.4422Z" transform="translate(0.008 0.0054)"/><path class="cls-1" d="M237.3418,89.0838c.0586.0078.1152.0127.17.0166s.1084.0059.16.0059a.7338.7338,0,0,0,.3135-.0557.5852.5852,0,0,0,.2255-.2412,4.0046,4.0046,0,0,0,.2471-.5391q.1377-.353.3906-.9463l-2.497-5.7314h.77l2.123,5.0381,1.97-5.0381h.7148l-2.97,7.3926a1.3483,1.3483,0,0,1-.4024.5556,1.1484,1.1484,0,0,1-.7636.2364c-.0742,0-.1436-.002-.209-.0059s-.1475-.0127-.2422-.0273Z" transform="translate(0.008 0.0054)"/></g></svg>