<svg id="logo" xmlns="http://www.w3.org/2000/svg" viewBox="0 0 286.042 114.9887"><defs><style>.cls-1{fill:#eec6dc;}.cls-2{fill:#e85298;}.cls-3{fill:#dc559a;}.cls-4{fill:#eac3d9;}</style></defs><g id="copy"><path class="cls-1" d="M66.4008,115.1715q-.6162,0-1.2356-.0489a15.4543,15.4543,0,0,1-2.2184-30.4758A27.1115,27.1115,0,1,0,30.5328,52.242,15.4544,15.4544,0,1,1,.383,45.4348,58.0188,58.0188,0,1,1,69.7516,114.804H69.75A15.3891,15.3891,0,0,1,66.4008,115.1715ZM57,29.3181q1.1152,0,2.241.0879a28.8827,28.8827,0,0,1,4.1028,56.9666,13.6834,13.6834,0,0,0,1.96,26.9846,13.85,13.85,0,0,0,4.0583-.282h0A56.2509,56.2509,0,1,0,2.1112,45.8236,13.683,13.683,0,1,0,28.804,51.8561,29.0106,29.0106,0,0,1,57,29.3181Z" transform="translate(0 -0.1828)"/><path class="cls-2" d="M65.4857,109.47q-.5567,0-1.1165-.0439a13.9979,13.9979,0,0,1-2.01-27.6037A24.3118,24.3118,0,1,0,33.2927,52.7633,13.9974,13.9974,0,1,1,5.9851,46.5989a52.3055,52.3055,0,1,1,62.5382,62.5376l-.2808-1.2453.279,1.2453A13.8884,13.8884,0,0,1,65.4857,109.47ZM57.0278,32.0242q1.0064,0,2.0231.0794a26.0832,26.0832,0,0,1,3.7055,51.445,12.2289,12.2289,0,0,0,5.3781,23.8591h0A50.5374,50.5374,0,1,0,7.7133,46.9871a12.2261,12.2261,0,1,0,23.8506,5.39A26.2,26.2,0,0,1,57.0278,32.0242Z" transform="translate(0 -0.1828)"/><path class="cls-1" d="M64.6622,104.3383q-.5036,0-1.0091-.04A12.6864,12.6864,0,0,1,61.8315,79.28,21.7922,21.7922,0,1,0,35.7772,53.2327,12.742,12.742,0,0,1,22.4064,63.1,12.6826,12.6826,0,0,1,10.7522,49.4632a12.9127,12.9127,0,0,1,.2753-1.8174,47.1635,47.1635,0,1,1,56.39,56.39h-.0018A12.6014,12.6014,0,0,1,64.6622,104.3383ZM57.0529,34.4594q.9093,0,1.8271.072a23.5636,23.5636,0,0,1,3.3477,46.4753,10.9153,10.9153,0,0,0,1.564,21.5259,11.049,11.049,0,0,0,3.2379-.2259A45.3949,45.3949,0,1,0,12.7557,48.0341a11.2388,11.2388,0,0,0-.2381,1.5682,10.9149,10.9149,0,0,0,21.5308,3.2446A23.67,23.67,0,0,1,57.0529,34.4594Z" transform="translate(0 -0.1828)"/></g><g id="name"><path class="cls-3" d="M146.7158,9.5225h-6.8594v17.64h-2.52V9.5225h-6.86v-2.24h16.24Z" transform="translate(0 -0.1828)"/><path class="cls-3" d="M161.248,11.4546a4.1433,4.1433,0,0,0-.8955-.7559,8.0671,8.0671,0,0,0-1.26-.6582,8.8938,8.8938,0,0,0-1.5264-.476,7.9987,7.9987,0,0,0-1.7217-.1817,5.41,5.41,0,0,0-3.4023.8677,2.89,2.89,0,0,0-1.0781,2.38,2.6427,2.6427,0,0,0,.3086,1.3442,2.5264,2.5264,0,0,0,.9658.91,7.34,7.34,0,0,0,1.6377.6577q.98.2805,2.3242.5879a24.2546,24.2546,0,0,1,2.7861.77,8.142,8.142,0,0,1,2.1279,1.0781,4.3189,4.3189,0,0,1,1.3438,1.5679,5.0428,5.0428,0,0,1,.4619,2.2681,5.1946,5.1946,0,0,1-.56,2.478,4.98,4.98,0,0,1-1.5263,1.7363,6.602,6.602,0,0,1-2.2823,1.0078,12.0083,12.0083,0,0,1-2.8554.3218,13.1871,13.1871,0,0,1-4.3545-.7139,12.1637,12.1637,0,0,1-3.7383-2.0859l1.2041-2.1279a6.7088,6.7088,0,0,0,1.1621.9521,9.5258,9.5258,0,0,0,1.624.854,11.9825,11.9825,0,0,0,1.96.6157,9.9154,9.9154,0,0,0,2.1982.2383,6.0961,6.0961,0,0,0,3.3038-.7563,2.792,2.792,0,0,0,.7978-3.6817,3.201,3.201,0,0,0-1.1055-.9941,8.5122,8.5122,0,0,0-1.8056-.7422q-1.0782-.3216-2.45-.6577a24.567,24.567,0,0,1-2.66-.7842,7.2373,7.2373,0,0,1-1.9179-1.0078,3.7967,3.7967,0,0,1-1.1622-1.4282,4.7313,4.7313,0,0,1-.3916-2.0161,5.69,5.69,0,0,1,.5313-2.52,5.2846,5.2846,0,0,1,1.4844-1.8476,6.47,6.47,0,0,1,2.2675-1.1343A10.3223,10.3223,0,0,1,155.9,7.1426a10.0089,10.0089,0,0,1,6.5244,2.268Z" transform="translate(0 -0.1828)"/><path class="cls-3" d="M174.8,25.0347a5.6436,5.6436,0,0,0,2.8848-.6719,5.335,5.335,0,0,0,1.834-1.75,7.2212,7.2212,0,0,0,.9658-2.4644,14.1838,14.1838,0,0,0,.2793-2.8139V7.2827h2.52V17.3345a15.39,15.39,0,0,1-.4619,3.8222,9.13,9.13,0,0,1-1.47,3.1778,7.1018,7.1018,0,0,1-2.6181,2.17,8.7281,8.7281,0,0,1-3.9063.7983,8.6408,8.6408,0,0,1-4.0039-.84,7.2557,7.2557,0,0,1-2.6181-2.2256,9.0282,9.0282,0,0,1-1.4278-3.1924,15.7828,15.7828,0,0,1-.4345-3.71V7.2827h2.52V17.3345a13.7722,13.7722,0,0,0,.2939,2.87,7.2708,7.2708,0,0,0,.98,2.45,5.2856,5.2856,0,0,0,1.82,1.7217A5.5886,5.5886,0,0,0,174.8,25.0347Z" transform="translate(0 -0.1828)"/><path class="cls-3" d="M190.2842,11.9868V27.1626h-2.52V7.2827h1.96l12.32,15.4839V7.3105h2.52V27.1626h-2.128Z" transform="translate(0 -0.1828)"/><path class="cls-3" d="M215.3711,7.2827h2.1279l8.12,19.88h-2.6875l-2.3525-5.8242h-8.3437l-2.3243,5.8242h-2.6875ZM220.02,19.3784l-3.584-9.1836-3.6962,9.1836Z" transform="translate(0 -0.1828)"/><path class="cls-3" d="M242.3076,24.4746a8.0543,8.0543,0,0,1-6.0478,2.8281,7.959,7.959,0,0,1-3.6827-.8681,9.7223,9.7223,0,0,1-2.9257-2.2818,10.99,10.99,0,0,1-1.9463-3.2343,10.1933,10.1933,0,0,1-.7139-3.752,10.5486,10.5486,0,0,1,2.6318-7.0137,9.1394,9.1394,0,0,1,2.9405-2.1982,8.5,8.5,0,0,1,3.6963-.812,8.5955,8.5955,0,0,1,4.7461,1.2041,7.9917,7.9917,0,0,1,2.8418,3.1357l-1.9327,1.3443a6.039,6.039,0,0,0-2.38-2.5762,6.6427,6.6427,0,0,0-3.3321-.84,5.74,5.74,0,0,0-2.7441.6578,6.7514,6.7514,0,0,0-2.1,1.7363,7.9986,7.9986,0,0,0-1.3438,2.4917,9.11,9.11,0,0,0-.4765,2.9263,8.4781,8.4781,0,0,0,.5322,3.01,8.2469,8.2469,0,0,0,1.456,2.4922,6.7563,6.7563,0,0,0,2.1836,1.6939,6.1608,6.1608,0,0,0,2.7442.6162,7.5377,7.5377,0,0,0,5.8525-3.1363V19.1548h-4.2842V17.2505h6.4121v9.9121h-2.1279Z" transform="translate(0 -0.1828)"/><path class="cls-3" d="M256.4463,25.0347a5.6436,5.6436,0,0,0,2.8848-.6719,5.3338,5.3338,0,0,0,1.8339-1.75,7.2193,7.2193,0,0,0,.9659-2.4644,14.1838,14.1838,0,0,0,.2793-2.8139V7.2827h2.5205V17.3345a15.39,15.39,0,0,1-.4619,3.8222,9.13,9.13,0,0,1-1.47,3.1778,7.1018,7.1018,0,0,1-2.6181,2.17,8.7284,8.7284,0,0,1-3.9063.7983,8.6408,8.6408,0,0,1-4.0039-.84,7.256,7.256,0,0,1-2.6182-2.2256,9.03,9.03,0,0,1-1.4277-3.1924,15.7828,15.7828,0,0,1-.4346-3.71V7.2827h2.5205V17.3345a13.7722,13.7722,0,0,0,.294,2.87,7.2687,7.2687,0,0,0,.98,2.45,5.2856,5.2856,0,0,0,1.82,1.7217A5.5886,5.5886,0,0,0,256.4463,25.0347Z" transform="translate(0 -0.1828)"/><path class="cls-3" d="M132.38,69.1626v-19.88h8.2881a5.3933,5.3933,0,0,1,2.4218.5459,6.0948,6.0948,0,0,1,1.9043,1.4561,6.9506,6.9506,0,0,1,1.2461,2.0439,6.2529,6.2529,0,0,1,.4483,2.31,6.8648,6.8648,0,0,1-.4209,2.38,6.5614,6.5614,0,0,1-1.1895,2.0439,5.7894,5.7894,0,0,1-1.8476,1.4282,5.3444,5.3444,0,0,1-2.3946.5318H134.9v7.14Zm2.52-9.38h5.7959A3.06,3.06,0,0,0,142.11,59.46a3.2039,3.2039,0,0,0,1.0781-.8959,4.4145,4.4145,0,0,0,.6992-1.33,5.0115,5.0115,0,0,0,.2519-1.5957,4.4357,4.4357,0,0,0-.2939-1.6241,4.377,4.377,0,0,0-.7842-1.3159,3.4583,3.4583,0,0,0-1.1474-.8681,3.2325,3.2325,0,0,0-1.3858-.3081H134.9Z" transform="translate(0 -0.1828)"/><path class="cls-3" d="M165.8115,49.2827v19.88h-2.52V60.1187H152.3438v9.0439h-2.5206v-19.88h2.5206v8.5957H163.291V49.2827Z" transform="translate(0 -0.1828)"/><path class="cls-3" d="M176.6191,49.2827h2.128l8.12,19.88H184.18l-2.3526-5.8242h-8.3437l-2.3242,5.8242h-2.6875Zm4.6485,12.0957-3.584-9.1836-3.6963,9.1836Z" transform="translate(0 -0.1828)"/><path class="cls-3" d="M189.5273,69.1626v-19.88h8.5118a5.3976,5.3976,0,0,1,2.4228.5459,6.1022,6.1022,0,0,1,1.9033,1.4561,6.9506,6.9506,0,0,1,1.2461,2.0439,6.2327,6.2327,0,0,1,.4483,2.31,6.8258,6.8258,0,0,1-.294,2.0019,6.2171,6.2171,0,0,1-.84,1.75,5.6155,5.6155,0,0,1-1.3164,1.3438,5.1289,5.1289,0,0,1-1.7217.812l4.8154,7.6162h-2.8554l-4.5362-7.14h-5.2636v7.14Zm2.5206-9.38h6.0195a2.9621,2.9621,0,0,0,1.414-.3359,3.3658,3.3658,0,0,0,1.0782-.91,4.4213,4.4213,0,0,0,.7-1.33,4.9261,4.9261,0,0,0,.2519-1.5678,4.2694,4.2694,0,0,0-.2939-1.5821,4.6639,4.6639,0,0,0-.7842-1.3159,3.5666,3.5666,0,0,0-1.1484-.896,3.1172,3.1172,0,0,0-1.3858-.3222h-5.8515Z" transform="translate(0 -0.1828)"/><path class="cls-3" d="M225.1152,69.1626V53.7905l-6.6084,11.7881h-1.4277l-6.6357-11.7881V69.1626h-2.52v-19.88h2.66L217.7793,62.19l7.2236-12.9077h2.6319v19.88Z" transform="translate(0 -0.1828)"/><path class="cls-3" d="M238.4424,49.2827H240.57l8.12,19.88h-2.6875L243.65,63.3384h-8.3438l-2.3242,5.8242h-2.6875Zm4.6484,12.0957-3.584-9.1836-3.6963,9.1836Z" transform="translate(0 -0.1828)"/><path class="cls-3" d="M250.0625,59.0825a10.6294,10.6294,0,0,1,.63-3.57,9.9163,9.9163,0,0,1,1.8486-3.1919,9.3026,9.3026,0,0,1,2.9815-2.2822,8.9563,8.9563,0,0,1,4.0039-.8682,8.3685,8.3685,0,0,1,4.5644,1.2041,7.4875,7.4875,0,0,1,2.8281,3.1362l-1.9882,1.2881a5.7812,5.7812,0,0,0-1.0782-1.5962,5.5551,5.5551,0,0,0-1.372-1.0361,5.9187,5.9187,0,0,0-1.5254-.56,7.3573,7.3573,0,0,0-1.54-.1679,6.082,6.082,0,0,0-2.9267.686,6.7575,6.7575,0,0,0-2.1416,1.792,7.738,7.738,0,0,0-1.3018,2.4922,9.2544,9.2544,0,0,0-.4345,2.7861,8.5906,8.5906,0,0,0,.5185,2.982,8.2176,8.2176,0,0,0,1.4414,2.5058,7.0258,7.0258,0,0,0,2.1846,1.7359,5.9352,5.9352,0,0,0,2.7441.644,6.9458,6.9458,0,0,0,1.6094-.1958,5.8792,5.8792,0,0,0,1.582-.63,6.7512,6.7512,0,0,0,1.4141-1.0923,5.3325,5.3325,0,0,0,1.0781-1.582l2.1,1.1479a6.1984,6.1984,0,0,1-1.3291,1.9742,8.4246,8.4246,0,0,1-1.9326,1.4419,9.824,9.824,0,0,1-2.2822.896,9.459,9.459,0,0,1-2.3516.3081,7.9469,7.9469,0,0,1-3.7519-.896,10.004,10.004,0,0,1-2.9541-2.3379,10.8822,10.8822,0,0,1-2.6182-7.0142Z" transform="translate(0 -0.1828)"/><path class="cls-3" d="M271.2021,49.2827l6.0206,10.36,6.0761-10.36h2.7432l-7.56,12.6279v7.252h-2.5195V61.8545l-7.5322-12.5718Z" transform="translate(0 -0.1828)"/></g><g id="mark"><path class="cls-4" d="M130.1123,87.5068V79.6973h2.6514a4.0273,4.0273,0,0,1,1.6338.3076,3.3223,3.3223,0,0,1,1.166.8359,3.5342,3.5342,0,0,1,.7041,1.2373,4.7709,4.7709,0,0,1,.2363,1.5127,4.6621,4.6621,0,0,1-.2637,1.6113,3.5076,3.5076,0,0,1-.7539,1.2325,3.3765,3.3765,0,0,1-1.1767.792,4.0718,4.0718,0,0,1-1.5459.28Zm5.6211-3.916a4.0411,4.0411,0,0,0-.1973-1.2929,2.9315,2.9315,0,0,0-.5781-1.0167,2.588,2.588,0,0,0-.93-.666,3.1825,3.1825,0,0,0-1.2646-.2363h-1.8809v6.4463h1.8809a3.1165,3.1165,0,0,0,1.2812-.2481,2.601,2.601,0,0,0,.93-.6816,2.9592,2.9592,0,0,0,.5664-1.0234A4.08,4.08,0,0,0,135.7334,83.5908Z" transform="translate(0 -0.1828)"/><path class="cls-4" d="M137.8242,80.5771v-1.1h.7481v1.1Zm0,6.93V81.7754h.7481v5.7314Z" transform="translate(0 -0.1828)"/><path class="cls-4" d="M142.124,87.6172a3.9894,3.9894,0,0,1-1.3086-.2207,3.1235,3.1235,0,0,1-1.1-.6377l.3408-.5059a3.7222,3.7222,0,0,0,.9844.5938,2.8948,2.8948,0,0,0,1.0723.1982,1.9385,1.9385,0,0,0,1.1055-.28.9086.9086,0,0,0,.413-.7978.6928.6928,0,0,0-.11-.4014.9472.9472,0,0,0-.3242-.28,2.5438,2.5438,0,0,0-.5391-.2149q-.3252-.0937-.7539-.1924c-.33-.081-.6162-.1611-.8574-.2422a2.5493,2.5493,0,0,1-.6-.2753.9888.9888,0,0,1-.3526-.379,1.234,1.234,0,0,1-.1152-.5664,1.6209,1.6209,0,0,1,.1709-.7588,1.5357,1.5357,0,0,1,.4619-.5449,2.1017,2.1017,0,0,1,.6816-.3242,3.0571,3.0571,0,0,1,.83-.11,3.2039,3.2039,0,0,1,1.1992.2148,2.3655,2.3655,0,0,1,.8692.5664l-.3633.4395a1.9975,1.9975,0,0,0-.7754-.4942,2.7658,2.7658,0,0,0-.9512-.165,2.3694,2.3694,0,0,0-.55.06,1.3345,1.3345,0,0,0-.4453.1933.939.939,0,0,0-.3027.335.9942.9942,0,0,0-.11.4785.78.78,0,0,0,.0772.374.6577.6577,0,0,0,.2529.2481,2.0593,2.0593,0,0,0,.4453.1865c.18.0547.3985.1123.6543.1709q.5508.1319.9688.2637a3.0521,3.0521,0,0,1,.6982.3076,1.2269,1.2269,0,0,1,.4238.43,1.24,1.24,0,0,1,.1426.6152,1.4981,1.4981,0,0,1-.6045,1.2549A2.6233,2.6233,0,0,1,142.124,87.6172Z" transform="translate(0 -0.1828)"/><path class="cls-4" d="M148.5049,87.6172a2.26,2.26,0,0,1-1.2813-.3692,2.91,2.91,0,0,1-.8965-.93V89.85h-.748V81.7754h.6709v1.1113a2.7726,2.7726,0,0,1,.9131-.874,2.3372,2.3372,0,0,1,1.2207-.3359,2.3993,2.3993,0,0,1,1.0889.248,2.7965,2.7965,0,0,1,.8584.6592,3.072,3.072,0,0,1,.5664.9521,3.1181,3.1181,0,0,1,.2031,1.11,3.4861,3.4861,0,0,1-.1865,1.1445,2.938,2.938,0,0,1-.5332.9463,2.5816,2.5816,0,0,1-.8252.6426A2.3356,2.3356,0,0,1,148.5049,87.6172Zm-.209-.66a1.796,1.796,0,0,0,.8418-.1982,2.0827,2.0827,0,0,0,.6484-.5225,2.3438,2.3438,0,0,0,.4131-.7373,2.5955,2.5955,0,0,0,.1426-.8525,2.4266,2.4266,0,0,0-.6162-1.6162,2.1457,2.1457,0,0,0-.6758-.5069,1.9341,1.9341,0,0,0-.8418-.1865,1.7318,1.7318,0,0,0-.6.1152,2.4529,2.4529,0,0,0-.583.3086,2.0664,2.0664,0,0,0-.4619.45,1.2132,1.2132,0,0,0-.2364.545v1.76a2.6023,2.6023,0,0,0,.335.5723,2.3731,2.3731,0,0,0,.4619.456,2.1976,2.1976,0,0,0,.5557.3028A1.7639,1.7639,0,0,0,148.2959,86.957Z" transform="translate(0 -0.1828)"/><path class="cls-4" d="M154.8408,87.6172a2.748,2.748,0,0,1-1.1494-.2373,2.8134,2.8134,0,0,1-.9072-.6485,3.0028,3.0028,0,0,1-.6-.9511,3.1066,3.1066,0,0,1-.2149-1.1553,3.0317,3.0317,0,0,1,.2149-1.1387,2.9379,2.9379,0,0,1,.5937-.9345,2.8333,2.8333,0,0,1,.9072-.6387,2.9019,2.9019,0,0,1,2.294,0,2.7334,2.7334,0,0,1,.8965.6435,3.0244,3.0244,0,0,1,.792,2.0577V84.79a.4671.4671,0,0,1-.0108.1211H152.751a2.4239,2.4239,0,0,0,.2148.8526,2.3514,2.3514,0,0,0,.4668.6758,2.0923,2.0923,0,0,0,.6553.4462,1.9529,1.9529,0,0,0,.7861.1592,2.0161,2.0161,0,0,0,.55-.0771,2.1857,2.1857,0,0,0,.5059-.209,1.8706,1.8706,0,0,0,.418-.3242,1.382,1.382,0,0,0,.2861-.4239l.6494.1758a1.9139,1.9139,0,0,1-.374.5781,2.6387,2.6387,0,0,1-.5615.4512,2.784,2.784,0,0,1-.7041.2969A3.0637,3.0637,0,0,1,154.8408,87.6172Zm2.1123-3.2783a2.3233,2.3233,0,0,0-.2148-.8418,2.2852,2.2852,0,0,0-.4619-.6543,2.0351,2.0351,0,0,0-1.4356-.583,2.0616,2.0616,0,0,0-.792.1543,2.018,2.018,0,0,0-.6543.4287,2.0945,2.0945,0,0,0-.4511.66,2.4958,2.4958,0,0,0-.2032.836Z" transform="translate(0 -0.1828)"/><path class="cls-4" d="M163.6406,87.5068h-.748V84.3057a2.7951,2.7951,0,0,0-.3018-1.4844,1.0337,1.0337,0,0,0-.93-.4629,1.92,1.92,0,0,0-.66.1211,2.21,2.21,0,0,0-.61.3418,2.6029,2.6029,0,0,0-.501.5225,2.0359,2.0359,0,0,0-.3183.6542v3.5088h-.7481V81.7754h.6817v1.2988a2.6935,2.6935,0,0,1,1.0068-1.0127,2.7686,2.7686,0,0,1,1.4248-.3847,1.6911,1.6911,0,0,1,.8028.1757,1.3742,1.3742,0,0,1,.5273.4952,2.2677,2.2677,0,0,1,.2861.7812,5.4875,5.4875,0,0,1,.0879,1.0225Z" transform="translate(0 -0.1828)"/><path class="cls-4" d="M167.1387,87.6172a3.9889,3.9889,0,0,1-1.3086-.2207,3.1235,3.1235,0,0,1-1.1-.6377l.3408-.5059a3.7222,3.7222,0,0,0,.9844.5938,2.8943,2.8943,0,0,0,1.0722.1982,1.9383,1.9383,0,0,0,1.1055-.28.9085.9085,0,0,0,.4131-.7978.6921.6921,0,0,0-.11-.4014.9453.9453,0,0,0-.3242-.28,2.5406,2.5406,0,0,0-.539-.2149q-.3252-.0937-.754-.1924c-.33-.081-.6162-.1611-.8574-.2422a2.5493,2.5493,0,0,1-.6-.2753.9877.9877,0,0,1-.3525-.379,1.2327,1.2327,0,0,1-.1153-.5664,1.6221,1.6221,0,0,1,.1709-.7588,1.535,1.535,0,0,1,.462-.5449,2.1017,2.1017,0,0,1,.6816-.3242,3.0561,3.0561,0,0,1,.83-.11,3.2046,3.2046,0,0,1,1.1992.2148,2.3651,2.3651,0,0,1,.8691.5664l-.3632.4395a1.999,1.999,0,0,0-.7754-.4942,2.7662,2.7662,0,0,0-.9512-.165,2.3688,2.3688,0,0,0-.55.06,1.3327,1.3327,0,0,0-.4453.1933.94.94,0,0,0-.3028.335.9953.9953,0,0,0-.11.4785.7807.7807,0,0,0,.0771.374.658.658,0,0,0,.253.2481,2.0572,2.0572,0,0,0,.4453.1865c.18.0547.3984.1123.6543.1709.3672.0879.6894.1758.9687.2637a3.053,3.053,0,0,1,.6983.3076,1.2269,1.2269,0,0,1,.4238.43,1.2406,1.2406,0,0,1,.1426.6152,1.4984,1.4984,0,0,1-.6045,1.2549A2.6233,2.6233,0,0,1,167.1387,87.6172Z" transform="translate(0 -0.1828)"/><path class="cls-4" d="M170.5938,80.5771v-1.1h.748v1.1Zm0,6.93V81.7754h.748v5.7314Z" transform="translate(0 -0.1828)"/><path class="cls-4" d="M177.8086,87.5068h-.7481V84.3057a2.7952,2.7952,0,0,0-.3017-1.4844,1.0339,1.0339,0,0,0-.93-.4629,1.9209,1.9209,0,0,0-.66.1211,2.2107,2.2107,0,0,0-.61.3418,2.6029,2.6029,0,0,0-.501.5225,2.0338,2.0338,0,0,0-.3183.6542v3.5088h-.7481V81.7754h.6817v1.2988a2.6928,2.6928,0,0,1,1.0068-1.0127,2.7684,2.7684,0,0,1,1.4248-.3847,1.6907,1.6907,0,0,1,.8027.1757,1.3745,1.3745,0,0,1,.5274.4952,2.2677,2.2677,0,0,1,.2861.7812,5.4875,5.4875,0,0,1,.0879,1.0225Z" transform="translate(0 -0.1828)"/><path class="cls-4" d="M181.7031,87.584a2.3689,2.3689,0,0,1-1.084-.2481,2.7908,2.7908,0,0,1-.8466-.6543,2.9989,2.9989,0,0,1-.5557-.9345,3.0827,3.0827,0,0,1-.1973-1.0889,3.3765,3.3765,0,0,1,.1924-1.1387,2.9291,2.9291,0,0,1,.544-.9521,2.6649,2.6649,0,0,1,.8418-.6485,2.4128,2.4128,0,0,1,1.083-.2421,2.2106,2.2106,0,0,1,1.2763.3681,3.5463,3.5463,0,0,1,.9239.93V81.7754h.6709v5.7539a2.3381,2.3381,0,0,1-.2256,1.05,2.2541,2.2541,0,0,1-.6045.7647,2.5772,2.5772,0,0,1-.8906.4619,3.7548,3.7548,0,0,1-1.084.1543,3.1451,3.1451,0,0,1-1.5948-.3526,2.81,2.81,0,0,1-.9794-.9453l.4619-.3633a2.0687,2.0687,0,0,0,.9023.8086,2.8631,2.8631,0,0,0,1.21.2588,2.6669,2.6669,0,0,0,.792-.1162,1.95,1.95,0,0,0,.6543-.3408,1.5932,1.5932,0,0,0,.4453-.5723,1.8528,1.8528,0,0,0,.165-.8076V86.3955a2.3849,2.3849,0,0,1-.9014.8691A2.4272,2.4272,0,0,1,181.7031,87.584Zm.209-.627a1.8115,1.8115,0,0,0,.6494-.1211,2.1968,2.1968,0,0,0,.5772-.3242,2.1313,2.1313,0,0,0,.4345-.457,1.401,1.401,0,0,0,.23-.5166V83.7666a2.2024,2.2024,0,0,0-.33-.5713,2.2446,2.2446,0,0,0-.4726-.4512,2.3761,2.3761,0,0,0-.5664-.2968,1.8523,1.8523,0,0,0-1.4737.0927,2.0565,2.0565,0,0,0-.6435.5342,2.33,2.33,0,0,0-.4014.7481,2.6867,2.6867,0,0,0-.1377.8466,2.3662,2.3662,0,0,0,.1651.88,2.2967,2.2967,0,0,0,.456.7315,2.1937,2.1937,0,0,0,.6768.4951A1.9338,1.9338,0,0,0,181.9121,86.957Z" transform="translate(0 -0.1828)"/><path class="cls-4" d="M194.7373,87.6172a2.2592,2.2592,0,0,1-1.2812-.3692,2.9085,2.9085,0,0,1-.8965-.93V89.85h-.7481V81.7754h.6709v1.1113a2.7726,2.7726,0,0,1,.9131-.874,2.3375,2.3375,0,0,1,1.2207-.3359,2.3993,2.3993,0,0,1,1.0889.248,2.7953,2.7953,0,0,1,.8584.6592,3.07,3.07,0,0,1,.5664.9521,3.1181,3.1181,0,0,1,.2031,1.11,3.4861,3.4861,0,0,1-.1865,1.1445,2.9362,2.9362,0,0,1-.5332.9463,2.5816,2.5816,0,0,1-.8252.6426A2.3349,2.3349,0,0,1,194.7373,87.6172Zm-.209-.66a1.796,1.796,0,0,0,.8418-.1982,2.083,2.083,0,0,0,.6485-.5225,2.3455,2.3455,0,0,0,.413-.7373,2.5929,2.5929,0,0,0,.1426-.8525,2.4266,2.4266,0,0,0-.6162-1.6162,2.1457,2.1457,0,0,0-.6758-.5069,1.9341,1.9341,0,0,0-.8418-.1865,1.7318,1.7318,0,0,0-.6.1152,2.4529,2.4529,0,0,0-.583.3086,2.0664,2.0664,0,0,0-.4619.45,1.213,1.213,0,0,0-.2363.545v1.76a2.6019,2.6019,0,0,0,.3349.5723,2.3759,2.3759,0,0,0,.4619.456,2.1993,2.1993,0,0,0,.5557.3028A1.7643,1.7643,0,0,0,194.5283,86.957Z" transform="translate(0 -0.1828)"/><path class="cls-4" d="M203.416,87.5068h-.748V84.3057a2.5854,2.5854,0,0,0-.335-1.4629,1.1225,1.1225,0,0,0-.9844-.4844,1.6857,1.6857,0,0,0-.6328.127,2.3785,2.3785,0,0,0-1.0664.8632,2.1584,2.1584,0,0,0-.3027.6494v3.5088h-.7481v-8.03h.7481v3.5976a2.59,2.59,0,0,1,.9453-1.0234,2.4477,2.4477,0,0,1,1.31-.374,1.76,1.76,0,0,1,.8359.1816,1.5471,1.5471,0,0,1,.56.5059,2.2076,2.2076,0,0,1,.3194.7812,4.73,4.73,0,0,1,.0986,1.0059Z" transform="translate(0 -0.1828)"/><path class="cls-4" d="M206.4521,87.6172a2.0168,2.0168,0,0,1-.7529-.1377,1.9117,1.9117,0,0,1-.6054-.38,1.7069,1.7069,0,0,1-.544-1.2646,1.4153,1.4153,0,0,1,.1758-.6934,1.6838,1.6838,0,0,1,.4951-.55,2.4144,2.4144,0,0,1,.7588-.3574,3.5059,3.5059,0,0,1,.9678-.127,5.3467,5.3467,0,0,1,.8916.0772,3.8684,3.8684,0,0,1,.8027.2207v-.5176a1.6661,1.6661,0,0,0-.4287-1.2041,1.5735,1.5735,0,0,0-1.1885-.4453,2.5325,2.5325,0,0,0-.9023.1758,4.36,4.36,0,0,0-.9346.5058l-.2637-.4951a3.8656,3.8656,0,0,1,2.1553-.748,2.3147,2.3147,0,0,1,1.6943.6054,2.2334,2.2334,0,0,1,.6162,1.6719v2.585q0,.3075.2745.3076v.66a1.7243,1.7243,0,0,1-.2852.0332.6436.6436,0,0,1-.4463-.1435.5327.5327,0,0,1-.17-.3955L208.74,86.55a2.5994,2.5994,0,0,1-.9951.792A3.06,3.06,0,0,1,206.4521,87.6172Zm.1768-.5723a2.5871,2.5871,0,0,0,1.0723-.22,1.7588,1.7588,0,0,0,.7422-.583.6853.6853,0,0,0,.1484-.2149.5452.5452,0,0,0,.05-.2148v-.9346a4.4942,4.4942,0,0,0-.7754-.22,4.3033,4.3033,0,0,0-.8193-.0771,2.2739,2.2739,0,0,0-1.2871.33,1.0031,1.0031,0,0,0-.4952.8692,1.1714,1.1714,0,0,0,.1045.4941,1.2567,1.2567,0,0,0,.2862.4024,1.3528,1.3528,0,0,0,.4345.2695A1.4732,1.4732,0,0,0,206.6289,87.0449Z" transform="translate(0 -0.1828)"/><path class="cls-4" d="M213.8662,82.4355a2.3536,2.3536,0,0,0-1.3193.418,2.1069,2.1069,0,0,0-.792,1.0889v3.5644h-.7481V81.7754h.7041V83.15a2.5982,2.5982,0,0,1,.8575-1.0332,1.9834,1.9834,0,0,1,1.1552-.374.7963.7963,0,0,1,.1426.0107Z" transform="translate(0 -0.1828)"/><path class="cls-4" d="M223.3926,87.5068h-.7481V84.3057a2.68,2.68,0,0,0-.3183-1.4737,1.0678,1.0678,0,0,0-.9463-.4736,1.6143,1.6143,0,0,0-.6211.1211,1.9048,1.9048,0,0,0-.5391.3418,2.3046,2.3046,0,0,0-.4345.5225,2.5058,2.5058,0,0,0-.2862.665v3.498h-.748V84.3057a2.7521,2.7521,0,0,0-.3076-1.4844,1.0593,1.0593,0,0,0-.9463-.4629,1.6866,1.6866,0,0,0-1.1553.4512,2.5156,2.5156,0,0,0-.7256,1.1884v3.5088h-.748V81.7754h.6816v1.2988a2.7139,2.7139,0,0,1,.9238-1.0293,2.2956,2.2956,0,0,1,1.2657-.3681,1.6289,1.6289,0,0,1,1.16.4072,1.7663,1.7663,0,0,1,.5332,1.0664,2.4489,2.4489,0,0,1,2.211-1.4736,1.7541,1.7541,0,0,1,.82.1757,1.3985,1.3985,0,0,1,.539.501,2.3607,2.3607,0,0,1,.2969.7813,5.1435,5.1435,0,0,1,.0928,1.0166Z" transform="translate(0 -0.1828)"/><path class="cls-4" d="M226.418,87.6172a2.0169,2.0169,0,0,1-.753-.1377,1.9117,1.9117,0,0,1-.6054-.38,1.7069,1.7069,0,0,1-.544-1.2646,1.4153,1.4153,0,0,1,.1758-.6934,1.6838,1.6838,0,0,1,.4951-.55,2.4144,2.4144,0,0,1,.7588-.3574,3.5059,3.5059,0,0,1,.9678-.127,5.3467,5.3467,0,0,1,.8916.0772,3.8684,3.8684,0,0,1,.8027.2207v-.5176a1.6657,1.6657,0,0,0-.4287-1.2041,1.5735,1.5735,0,0,0-1.1885-.4453,2.5329,2.5329,0,0,0-.9023.1758,4.3627,4.3627,0,0,0-.9346.5058l-.2637-.4951a3.8656,3.8656,0,0,1,2.1553-.748,2.3151,2.3151,0,0,1,1.6944.6054,2.2338,2.2338,0,0,1,.6162,1.6719v2.585c0,.205.0918.3076.2744.3076v.66a1.722,1.722,0,0,1-.2852.0332.6436.6436,0,0,1-.4463-.1435.5331.5331,0,0,1-.17-.3955l-.0224-.4512a2.6,2.6,0,0,1-.9952.792A3.06,3.06,0,0,1,226.418,87.6172Zm.1767-.5723a2.5871,2.5871,0,0,0,1.0723-.22,1.7582,1.7582,0,0,0,.7422-.583.6853.6853,0,0,0,.1484-.2149.5452.5452,0,0,0,.05-.2148v-.9346a4.4942,4.4942,0,0,0-.7754-.22,4.3025,4.3025,0,0,0-.8193-.0771,2.2741,2.2741,0,0,0-1.2871.33,1.003,1.003,0,0,0-.4951.8692,1.17,1.17,0,0,0,.1045.4941,1.2548,1.2548,0,0,0,.2861.4024,1.3522,1.3522,0,0,0,.4346.2695A1.4722,1.4722,0,0,0,226.5947,87.0449Z" transform="translate(0 -0.1828)"/><path class="cls-4" d="M230.5762,84.625a3.1523,3.1523,0,0,1,.209-1.1445,2.8829,2.8829,0,0,1,.5888-.9405,2.7437,2.7437,0,0,1,.9072-.6318,2.8774,2.8774,0,0,1,1.1661-.2314,2.6779,2.6779,0,0,1,1.4189.3681,2.37,2.37,0,0,1,.9131.9961l-.7256.2305a1.7482,1.7482,0,0,0-.6767-.6875,1.9987,1.9987,0,0,0-1.7823-.0713,2.1024,2.1024,0,0,0-.66.4785,2.2184,2.2184,0,0,0-.4395.7207,2.66,2.66,0,0,0,.0049,1.8262,2.3372,2.3372,0,0,0,.4512.7422,2.1491,2.1491,0,0,0,.666.4951,1.8483,1.8483,0,0,0,.8086.1816,1.9592,1.9592,0,0,0,.5439-.0771,2.0858,2.0858,0,0,0,.501-.2149,1.8068,1.8068,0,0,0,.3955-.3134,1.0155,1.0155,0,0,0,.2315-.3741l.7363.2207a1.8647,1.8647,0,0,1-.3516.5664,2.4654,2.4654,0,0,1-.5449.4512,2.7023,2.7023,0,0,1-.6924.2969,2.9669,2.9669,0,0,1-.7871.1045,2.7905,2.7905,0,0,1-2.0674-.8858,3.0063,3.0063,0,0,1-.6-.9511A3.1065,3.1065,0,0,1,230.5762,84.625Z" transform="translate(0 -0.1828)"/><path class="cls-4" d="M237.3418,89.2666c.0586.0078.1152.0127.17.0166s.1084.0059.16.0059a.7332.7332,0,0,0,.3135-.0557.5852.5852,0,0,0,.2255-.2412,4.006,4.006,0,0,0,.2471-.5391c.0918-.2353.2217-.55.3906-.9463l-2.497-5.7314h.77l2.123,5.0381,1.97-5.0381h.7148l-2.97,7.3926a1.3482,1.3482,0,0,1-.4024.5556,1.148,1.148,0,0,1-.7636.2364c-.0742,0-.1436-.002-.209-.0059s-.1475-.0127-.2422-.0273Z" transform="translate(0 -0.1828)"/></g></svg>