<svg viewBox="0 0 27.4287 41.1431" xmlns="http://www.w3.org/2000/svg"><path d="m27.4287 13.7144a11.2662 11.2662 0 0 1 -.8843 4.7944l-9.75 20.7324a3.2483 3.2483 0 0 1 -1.2719 1.3926 3.4644 3.4644 0 0 1 -3.6163 0 3.0867 3.0867 0 0 1 -1.2456-1.3926l-9.7768-20.7324a11.2667 11.2667 0 0 1 -.8838-4.7944 13.212 13.212 0 0 1 4.0181-9.6963 13.2112 13.2112 0 0 1 9.6963-4.0181 13.2127 13.2127 0 0 1 9.6962 4.0181 13.2116 13.2116 0 0 1 4.0181 9.6963zm-8.8662 4.8481a6.6057 6.6057 0 0 0 2.0088-4.8481 6.6066 6.6066 0 0 0 -2.0088-4.8482 6.6069 6.6069 0 0 0 -4.8481-2.0088 6.6061 6.6061 0 0 0 -4.8482 2.0088 6.6074 6.6074 0 0 0 -2.0093 4.8482 6.6065 6.6065 0 0 0 2.0093 4.8481 6.6058 6.6058 0 0 0 4.8482 2.0088 6.6065 6.6065 0 0 0 4.8481-2.0088z" fill="#dc559a"/></svg>