<?xml version="1.0" encoding="utf-8"?>
<!-- Generator: Adobe Illustrator 25.0.0, SVG Export Plug-In . SVG Version: 6.00 Build 0)  -->
<svg version="1.1" id="レイヤー_1" xmlns="http://www.w3.org/2000/svg" xmlns:xlink="http://www.w3.org/1999/xlink" x="0px"
	 y="0px" viewBox="0 0 217.1 22.4" style="enable-background:new 0 0 217.1 22.4;" xml:space="preserve">
<style type="text/css">
	.st0{fill:#FFFFFF;}
</style>
<path class="st0" d="M85,11.7c-0.3-0.4-0.9-0.5-1.3-0.2l-2.1,1.1c-0.3,0.2-0.5,0.4-0.5,0.7c-0.1,0.3,0,0.6,0.2,0.9
	c0.7,0.8,1.3,1.7,1.8,2.6c-2.8,0.2-3.4,0.3-6.3,0.3c1.3-2.6,2.4-5.3,3.4-8c0.1-0.3,0.1-0.6-0.1-0.9C80,8,79.7,7.8,79.4,7.7l-2.3-0.4
	c-0.5-0.1-1,0.2-1.2,0.7c-1,3.1-2.2,6.2-3.6,9.2h-1.7c-0.3,0-0.6,0.1-0.8,0.4c-0.2,0.2-0.3,0.5-0.3,0.8l0.3,2.2
	c0.1,0.5,0.5,1,1.1,0.9h0.2c5.4-0.2,10.4-0.4,14.1-0.9l0.4,0.9c0.2,0.4,0.6,0.6,1,0.6c0.1,0,0.2,0,0.3-0.1l2.5-1.1
	c0.3-0.1,0.5-0.3,0.6-0.6c0.1-0.3,0.1-0.6,0-0.8C88.7,16.7,87,14.1,85,11.7z"/>
<path class="st0" d="M85.2,1.1C85,0.7,84.5,0.4,84,0.6l-2.1,0.6c-0.3,0.1-0.5,0.3-0.7,0.6c-0.1,0.3-0.1,0.6,0,0.9
	c1.3,3.4,3.5,6.4,6.2,8.8c0.2,0.2,0.4,0.3,0.7,0.3h0.1c0.3,0,0.5-0.2,0.7-0.4l1.6-2c0.4-0.4,0.3-1.1-0.2-1.5
	C88.2,6,86.4,3.7,85.2,1.1z"/>
<path class="st0" d="M71.1,11.7h0.1c0.3,0,0.5-0.1,0.7-0.3c2.8-2.4,4.9-5.5,6.2-9c0.1-0.3,0.1-0.6,0-0.8c-0.1-0.3-0.4-0.5-0.7-0.5
	l-2.2-0.5c-0.5-0.1-1,0.1-1.2,0.6c-1.1,2.5-2.8,4.8-5,6.5C68.6,8,68.5,8.6,68.8,9c0,0,0,0,0,0l1.6,2.2
	C70.6,11.5,70.8,11.7,71.1,11.7z"/>
<path class="st0" d="M134.9,1.6h-18.1c-0.6,0-1,0.4-1,1l0,0v2.2c0,0.6,0.4,1,1,1h13.8c-0.7,1.6-1.9,3-3.4,3.9c0-0.4,0.1-0.7,0.1-1.1
	c0-0.3-0.1-0.5-0.3-0.7c-0.2-0.2-0.4-0.3-0.7-0.3h-2.5c-0.6,0-1,0.4-1,1c-0.1,4.2-1.1,7.4-5.9,9.6c-0.3,0.1-0.5,0.4-0.6,0.7
	c-0.1,0.3,0,0.6,0.2,0.9l1.5,1.8c0.2,0.2,0.5,0.4,0.8,0.4c0.1,0,0.3,0,0.4-0.1c6.5-3.2,7.4-7.8,7.8-10.4l1.6,1.6
	c0.3,0.3,0.9,0.4,1.2,0.1c3.6-2.3,5.3-5.6,6.1-10.2c0.1-0.5-0.3-1.1-0.8-1.1C135,1.6,135,1.6,134.9,1.6L134.9,1.6z"/>
<path class="st0" d="M154.9,4.3h-7.1c0.1-1.2,0.1-1.5,0.2-2.5c0-0.3-0.1-0.5-0.3-0.7c-0.2-0.2-0.4-0.3-0.7-0.3h-2.6
	c-0.6,0-1.1,0.5-1.1,1.1c0,0.8,0,1.1-0.1,2.3H138c-0.6,0-1.1,0.5-1.1,1.1v2c0,0.6,0.5,1.1,1.1,1.1h4.8c-0.6,3.8-2.7,7.2-6,9.2
	c-0.5,0.3-0.7,1-0.4,1.6c0,0.1,0.1,0.1,0.1,0.2l1.5,1.7c0.4,0.4,1,0.5,1.5,0.2c4.2-3,7.1-7.7,7.8-12.9h4.2v1.4c0,2-0.2,4.1-0.4,6.1
	c-0.2,1-0.4,1.3-1.8,1.3c-0.6,0-1.2,0-1.9-0.1c-0.3,0-0.7,0.1-0.9,0.3c-0.2,0.2-0.4,0.6-0.4,0.9l0.1,2.2c0,0.5,0.5,1,1,1.1
	c0.9,0.1,1.8,0.1,2.6,0.1c1.4,0,3.9,0,5-2.7c1-2.4,1.1-9,1.1-10.8V5.4C156,4.8,155.5,4.3,154.9,4.3z"/>
<path class="st0" d="M176.7,3.5h-6.5V1.7c0-0.5-0.4-0.9-0.9-0.9h-2.6c-0.5,0-0.9,0.4-0.9,0.9v1.8h-6.3c-0.5,0-0.9,0.4-0.9,0.9v7.4
	c0,0.5,0.4,0.9,0.9,0.9h2.5c0.5,0,0.9-0.4,0.9-0.9V7.7h10c-0.1,5.5-3.9,9.1-11.1,9.8c-0.3,0-0.5,0.2-0.7,0.4
	c-0.2,0.2-0.2,0.5-0.1,0.8l0.8,2.4c0.1,0.4,0.5,0.6,0.9,0.6h0.1c10-1,14.9-6.8,14.9-16.6V4.5C177.7,4,177.2,3.5,176.7,3.5
	C176.7,3.5,176.7,3.5,176.7,3.5z"/>
<path class="st0" d="M186.3,9.2c0.1,0.1,0.3,0.1,0.5,0.1h0.2c0.2-0.1,0.4-0.2,0.6-0.4l1.4-2.4c0.1-0.2,0.2-0.5,0.1-0.7
	c-0.1-0.2-0.2-0.4-0.4-0.6c-2.1-1.2-4.3-2.1-6.6-2.8c-0.4-0.1-0.9,0.1-1.1,0.5L179.9,5c-0.1,0.2-0.1,0.5,0,0.8
	c0.1,0.2,0.3,0.4,0.5,0.5C182.5,7.1,184.5,8,186.3,9.2z"/>
<path class="st0" d="M199.4,5.4l-2.3-1.6c-0.2-0.2-0.6-0.2-0.8-0.1c-0.3,0.1-0.5,0.3-0.6,0.6c-1.1,3.9-2.9,7.1-5,8.9
	c-2.3,2-5.6,3.3-10.1,3.7c-0.3,0-0.5,0.2-0.6,0.4c-0.2,0.2-0.2,0.5-0.2,0.7l0.6,2.9c0.1,0.4,0.5,0.7,0.9,0.7h0.1
	c8.5-1.3,14.8-4.4,18.2-15.3C199.9,6,199.7,5.6,199.4,5.4z"/>
<path class="st0" d="M216.6,10.7c-3.3-1.8-6.8-3.3-10.4-4.4V1.7c0-0.5-0.4-0.9-0.9-0.9c0,0,0,0,0,0h-3c-0.5,0-0.9,0.4-0.9,0.9
	c0,0,0,0,0,0l0.1,19c0,0.5,0.4,0.9,0.9,0.9l0,0h3c0.5,0,0.9-0.4,0.9-1l-0.1-9.7c2.8,1.1,5.4,2.5,7.9,4.2c0.2,0.2,0.5,0.2,0.8,0.1
	c0.3-0.1,0.5-0.3,0.6-0.5l1.5-2.9C217.2,11.5,217.1,10.9,216.6,10.7z"/>
<path class="st0" d="M108.5,1l2.4-1c0.2-0.1,0.4,0,0.6,0.1c0.6,0.7,1.2,1.4,1.7,2.2c0.2,0.2,0.1,0.6-0.1,0.8c0,0-0.1,0-0.1,0.1
	l-2.5,1.1c-0.2,0.1-0.5,0-0.7-0.2c-0.4-0.6-0.9-1.5-1.5-2.2C108.1,1.5,108.2,1.2,108.5,1C108.5,1,108.5,1,108.5,1z"/>
<path class="st0" d="M109.9,22.4c-1.1-0.1-2.1-0.5-2.9-1.4c-3.3-3.5-3.6-9.9-3.7-13.5H92.7c-0.5,0-0.8-0.4-0.8-0.8V4.5
	c0-0.5,0.4-0.8,0.8-0.8h10.4c0-0.5-0.1-1.6-0.1-2.2c0-0.2,0.1-0.4,0.2-0.6c0.2-0.2,0.4-0.3,0.6-0.3h2.5c0.5,0,0.8,0.4,0.8,0.9v2.2
	h5.4c0.5,0,0.8,0.4,0.8,0.8v2.1c0,0.5-0.4,0.8-0.8,0.8h-5.3c0.1,2.1,0.4,5.9,1.6,8.6c0.4,0.8,0.7,1.2,1,1.2s1-0.5,1.6-1.2
	c0.2-0.2,0.4-0.3,0.7-0.3c0.3,0.1,0.6,0.3,0.7,0.6c0,0,0.6,1,1.1,1.8s-0.2,1.6-0.5,2C112.6,21.3,111.3,22.1,109.9,22.4z M103.3,7.4
	L103.3,7.4z M92.8,21.8c-0.2,0-0.4-0.1-0.5-0.2C92.1,21.4,92,21.2,92,21l-0.2-2.4c0-0.2,0.1-0.5,0.2-0.6c0.1-0.2,0.4-0.3,0.6-0.3
	l1.4-0.1l1.5-0.1V13h-2.2c-0.5,0-0.8-0.4-0.8-0.9V10c0-0.5,0.4-0.8,0.8-0.9h8.4c0.5,0,0.8,0.4,0.8,0.9v2.1c0,0.5-0.4,0.8-0.8,0.9
	h-2.2v4.1c0.8-0.1,1.4-0.1,1.9-0.2s0.8-0.1,1.1-0.1c0.2,0,0.5,0,0.7,0.2c0.2,0.2,0.3,0.4,0.3,0.6v2.1c0,0.4-0.3,0.8-0.7,0.8
	C100.6,21,93.2,21.8,92.8,21.8L92.8,21.8z"/>
<path class="st0" d="M17.6,0.8h3.1c0.5,0,0.9,0.4,0.9,0.9v19.2c0,0.5-0.4,0.9-0.9,0.9h-3.1c-0.5,0-0.9-0.4-0.9-0.9V1.7
	C16.7,1.2,17.1,0.8,17.6,0.8z"/>
<path class="st0" d="M41.9,0.8h-3.1c-0.5,0-0.9,0.4-0.9,0.9c0,0,0,0,0,0v11.4L29.2,1.2l-0.1-0.1l0,0L29,1l0,0h0l0,0l0,0l0,0l0,0l0,0
	h0l0,0h0h-3.5c-0.5,0-0.9,0.4-0.9,0.9c0,0,0,0,0,0v19c0,0.5,0.4,0.9,0.9,0.9h3.1c0.5,0,0.9-0.4,0.9-0.9c0,0,0,0,0,0V9.4l8.8,11.9
	c0.1,0.1,0.1,0.2,0.2,0.2l0,0h0.1l0,0l0,0l0,0h0.1c0.1,0,0.1,0,0.2,0h3.1c0.5,0,0.9-0.4,0.9-0.9v-19C42.7,1.2,42.4,0.9,41.9,0.8z"/>
<path class="st0" d="M13.2,16.9H4.8V1.7c0-0.5-0.4-0.8-0.8-0.9H0.9C0.4,0.8,0,1.2,0,1.6c0,0,0,0,0,0v19.2l0,0c0,0.2,0.1,0.4,0.2,0.6
	l0,0l0,0c0.2,0.2,0.4,0.2,0.6,0.2h12.4c0.5,0,0.9-0.4,0.9-0.9l0,0v-3.1C14.1,17.3,13.7,16.9,13.2,16.9
	C13.2,16.9,13.2,16.9,13.2,16.9z"/>
<path class="st0" d="M59,0.8H46.6c-0.2,0-0.5,0.1-0.6,0.2l0,0l0,0c-0.2,0.2-0.2,0.4-0.2,0.6l0,0v19.3l0,0c0,0.2,0.1,0.4,0.2,0.6l0,0
	l0,0c0.2,0.2,0.4,0.2,0.6,0.2H59c0.5,0,0.9-0.4,0.9-0.9c0,0,0,0,0,0v-3.1c0-0.5-0.4-0.9-0.8-0.9c0,0,0,0,0,0h-8.4v-3.2H59
	c0.5,0,0.9-0.4,0.9-0.9l0,0V9.7c0-0.5-0.4-0.9-0.8-0.9c0,0,0,0,0,0h-8.4V5.6H59c0.5,0,0.9-0.4,0.9-0.9c0,0,0,0,0,0V1.7
	C59.9,1.2,59.5,0.8,59,0.8C59,0.8,59,0.8,59,0.8z"/>
</svg>
