<?xml version="1.0" encoding="utf-8"?>
<!-- Generator: Adobe Illustrator 25.0.0, SVG Export Plug-In . SVG Version: 6.00 Build 0)  -->
<svg version="1.1" id="レイヤー_1" xmlns="http://www.w3.org/2000/svg" xmlns:xlink="http://www.w3.org/1999/xlink" x="0px"
	 y="0px" viewBox="0 0 148.5 50" style="enable-background:new 0 0 148.5 50;" xml:space="preserve">
<style type="text/css">
	.st0{fill:#FFFFFF;}
</style>
<path class="st0" d="M16.4,39.4c-0.3-0.4-0.9-0.5-1.3-0.2L13,40.3c-0.3,0.2-0.5,0.4-0.5,0.7c0,0.3,0,0.6,0.2,0.9
	c0.7,0.8,1.3,1.7,1.8,2.6c-2.8,0.2-3.4,0.3-6.3,0.3c1.3-2.6,2.4-5.3,3.4-8c0.1-0.3,0.1-0.6-0.1-0.9c-0.2-0.3-0.4-0.5-0.7-0.5L8.5,35
	c-0.5-0.1-1,0.2-1.2,0.7c-1,3.1-2.2,6.2-3.6,9.2H1.9c-0.3,0-0.6,0.1-0.8,0.4c-0.2,0.2-0.3,0.5-0.2,0.8l0.3,2.2c0,0.6,0.5,1,1.1,0.9
	c0,0,0,0,0,0h0.2c5.3-0.2,10.4-0.4,14.1-0.9c0.2,0.3,0.3,0.6,0.4,0.9c0.2,0.4,0.6,0.6,1,0.6c0.1,0,0.3,0,0.4-0.1l2.5-1.1
	c0.3-0.1,0.4-0.4,0.5-0.6c0.1-0.3,0.1-0.6,0-0.8C20.1,44.4,18.4,41.8,16.4,39.4z"/>
<path class="st0" d="M16.6,28.8c-0.2-0.5-0.7-0.8-1.2-0.6l-2.1,0.6c-0.5,0.1-0.9,0.6-0.8,1.2c0,0.1,0,0.2,0.1,0.2
	c1.3,3.4,3.5,6.4,6.2,8.8c0.2,0.2,0.4,0.3,0.7,0.3h0.1c0.3,0,0.5-0.2,0.7-0.4l1.6-2c0.4-0.4,0.3-1.1-0.1-1.5
	C19.5,33.7,17.8,31.4,16.6,28.8z"/>
<path class="st0" d="M2.5,39.4h0.1c0.3,0,0.5-0.1,0.7-0.3c2.8-2.4,4.9-5.5,6.2-9c0.1-0.3,0.1-0.6,0-0.8c-0.1-0.3-0.4-0.5-0.7-0.5
	l-2.1-0.6c-0.5-0.1-1,0.1-1.2,0.6c-1.1,2.5-2.9,4.8-5.1,6.5c-0.5,0.3-0.6,0.9-0.3,1.4c0,0,0,0.1,0.1,0.1L1.8,39
	C2,39.2,2.2,39.4,2.5,39.4z"/>
<path class="st0" d="M66.3,29.3H48.2c-0.6,0-1,0.4-1,1v2.2c0,0.6,0.4,1,1,1H62c-0.7,1.6-1.9,3-3.4,3.9c0-0.4,0.1-0.7,0.1-1.2
	c0-0.3-0.1-0.5-0.3-0.7c-0.2-0.2-0.4-0.3-0.7-0.3h-2.5c-0.6,0-1,0.4-1,1c-0.1,4.2-1.1,7.4-5.9,9.6c-0.3,0.1-0.5,0.4-0.6,0.7
	c-0.1,0.3,0,0.6,0.2,0.8l1.5,1.8c0.2,0.2,0.5,0.4,0.8,0.4c0.1,0,0.3,0,0.4-0.1c6.5-3.2,7.4-7.8,7.8-10.4l1.6,1.6
	c0.3,0.3,0.9,0.4,1.3,0.1c3.6-2.3,5.3-5.6,6.1-10.2c0-0.3,0-0.6-0.2-0.8C66.9,29.5,66.6,29.3,66.3,29.3z"/>
<path class="st0" d="M86.3,32h-7.1c0.1-1.2,0.1-1.5,0.2-2.5c0-0.3-0.1-0.5-0.3-0.7c-0.2-0.2-0.4-0.3-0.7-0.3h-2.6
	c-0.6,0-1.1,0.5-1.1,1.1c0,0.8,0,1.1-0.1,2.3h-5.2c-0.6,0-1.1,0.5-1.1,1.1v2c0,0.6,0.5,1.1,1.1,1.1h4.7c-0.6,3.8-2.7,7.2-6,9.2
	c-0.3,0.2-0.5,0.5-0.5,0.8c0,0.3,0.1,0.7,0.3,0.9l1.5,1.7c0.4,0.4,1,0.5,1.5,0.2c4.2-3,7.1-7.7,7.8-12.8h4.2v1.3
	c0,2-0.2,4.1-0.4,6.1c-0.2,1-0.4,1.3-1.8,1.3c-0.6,0-1.2,0-1.8-0.1c-0.6,0-1.2,0.4-1.2,1.1c0,0,0,0,0,0.1l0.1,2.2c0,0.5,0.5,1,1,1.1
	c0.9,0.1,1.8,0.1,2.7,0.1c1.4,0,3.9,0,5-2.7c1-2.4,1-9,1-10.8v-2.8C87.4,32.5,86.9,32,86.3,32z"/>
<path class="st0" d="M108.1,31.2h-6.6v-1.8c0-0.5-0.4-0.9-0.9-0.9c0,0,0,0,0,0H98c-0.5,0-0.9,0.4-0.9,0.9l0,0v1.8h-6.2
	c-0.5,0-0.9,0.4-0.9,0.9l0,0v7.4c0,0.5,0.4,0.9,0.9,0.9l0,0h2.5c0.5,0,0.9-0.4,0.9-0.9c0,0,0,0,0,0v-4.2h10
	c-0.1,5.5-3.9,9.1-11.1,9.8c-0.3,0-0.5,0.2-0.7,0.4c-0.2,0.2-0.2,0.5-0.1,0.8l0.8,2.4c0.1,0.4,0.5,0.6,0.9,0.6h0.1
	c10-1,14.9-6.8,14.9-16.6v-0.7C109,31.7,108.6,31.2,108.1,31.2z"/>
<path class="st0" d="M117.7,36.9c0.2,0.1,0.3,0.1,0.5,0.2h0.2c0.2-0.1,0.5-0.2,0.6-0.4l1.4-2.4c0.1-0.2,0.2-0.5,0.1-0.7
	c-0.1-0.2-0.2-0.4-0.4-0.6c-2.1-1.2-4.3-2.2-6.6-2.8c-0.4-0.1-0.9,0.1-1.1,0.5l-1.1,2.2c-0.1,0.2-0.1,0.5,0,0.8
	c0.1,0.2,0.3,0.4,0.6,0.5C113.9,34.8,115.9,35.7,117.7,36.9z"/>
<path class="st0" d="M130.8,33.1l-2.3-1.6c-0.4-0.3-1-0.2-1.3,0.2c-0.1,0.1-0.1,0.2-0.1,0.3c-1.2,3.9-2.9,7.1-5,8.9
	c-2.3,2-5.7,3.3-10.1,3.7c-0.3,0-0.5,0.2-0.7,0.4c-0.2,0.2-0.2,0.5-0.2,0.7l0.6,2.9c0.1,0.4,0.5,0.7,0.9,0.7h0.2
	c8.5-1.3,14.8-4.4,18.3-15.3C131.3,33.7,131.1,33.3,130.8,33.1z"/>
<path class="st0" d="M148,38.3c-3.3-1.8-6.7-3.3-10.3-4.3v-4.5c0-0.5-0.4-0.9-0.9-0.9c0,0,0,0,0,0h-3c-0.5,0-0.9,0.4-0.9,0.9
	l0.1,19.1c0,0.5,0.5,0.9,1,0.9h3c0.5,0,0.9-0.5,0.9-1l-0.1-9.8c2.8,1.1,5.4,2.5,7.9,4.2c0.4,0.3,1,0.2,1.3-0.2c0,0,0-0.1,0.1-0.1
	l1.5-3C148.7,39.1,148.5,38.6,148,38.3C148,38.4,148,38.4,148,38.3z"/>
<path class="st0" d="M39.9,28.7l2.4-1c0.2-0.1,0.4,0,0.5,0.1c0.6,0.7,1.2,1.4,1.7,2.2c0.2,0.2,0.1,0.6-0.1,0.8c0,0-0.1,0-0.1,0.1
	l-2.5,1.1c-0.2,0.1-0.5,0-0.7-0.2c-0.4-0.6-0.9-1.5-1.5-2.1c-0.2-0.2-0.2-0.6,0.1-0.8C39.8,28.7,39.8,28.7,39.9,28.7z"/>
<path class="st0" d="M41.3,50c-1.1,0-2.2-0.5-2.9-1.3c-3.2-3.5-3.5-9.9-3.7-13.5H24.1c-0.5,0-0.9-0.4-0.9-0.8v-2.1
	c0-0.5,0.4-0.9,0.9-0.9l0,0h10.4c0-0.5-0.1-1.6-0.1-2.2c0-0.2,0.1-0.4,0.2-0.6c0.2-0.2,0.4-0.3,0.6-0.3h2.5c0.5,0,0.8,0.4,0.8,0.9
	v2.2h5.4c0.5,0,0.8,0.4,0.8,0.9v2.1c0,0.5-0.4,0.8-0.8,0.8h-5.3c0.1,2.1,0.4,5.9,1.6,8.6c0.4,0.8,0.7,1.2,1,1.2s1-0.5,1.6-1.2
	c0.2-0.2,0.4-0.3,0.7-0.3c0.3,0.1,0.6,0.3,0.7,0.6c0,0,0.6,1,1.1,1.8s-0.2,1.6-0.5,2C44,49,42.7,49.8,41.3,50z M24.2,49.5
	c-0.2,0-0.4-0.1-0.5-0.2c-0.2-0.1-0.3-0.4-0.3-0.6l-0.2-2.4c0-0.2,0-0.5,0.2-0.6c0.1-0.2,0.4-0.3,0.6-0.3l1.4-0.1l1.5-0.1v-4.5h-2.2
	c-0.5,0-0.9-0.4-0.9-0.8v-2.2c0-0.5,0.4-0.8,0.9-0.8H33c0.5,0,0.8,0.4,0.8,0.8v2.2c0,0.5-0.4,0.8-0.8,0.8h-2.2v4.1
	c0.9-0.1,1.4-0.2,1.9-0.2s0.8-0.1,1.1-0.1c0.2,0,0.5,0,0.7,0.2c0.2,0.2,0.3,0.4,0.3,0.6v2.1c0,0.4-0.3,0.8-0.7,0.8
	C32,48.7,24.6,49.4,24.2,49.5L24.2,49.5z"/>
<path class="st0" d="M19.6,0h3.1c0.5,0,0.9,0.4,0.9,0.9V20c0,0.5-0.4,0.9-0.9,0.9h-3.1c-0.5,0-0.9-0.4-0.9-0.9V0.9
	C18.7,0.4,19.1,0,19.6,0z"/>
<path class="st0" d="M44,0h-3.1C40.4,0,40,0.4,40,0.8c0,0,0,0,0,0v11.4L31.2,0.4l-0.1-0.1l0,0h0l0,0l0,0l0,0l0,0l0,0l0,0l0,0h0l0,0
	h0l0,0h0h-3.5c-0.5,0-0.9,0.4-0.9,0.8c0,0,0,0,0,0V20c0,0.5,0.4,0.9,0.9,0.9c0,0,0,0,0,0h3.1c0.5,0,0.9-0.4,0.9-0.9V8.6l8.8,11.9
	c0.1,0.1,0.1,0.2,0.2,0.2l0,0l0,0l0,0l0,0l0,0l0,0h0l0,0c0.1,0,0.1,0,0.2,0H44c0.5,0,0.9-0.4,0.8-0.9v-19C44.9,0.4,44.5,0,44,0
	C44,0,44,0,44,0z"/>
<path class="st0" d="M15.2,16.1H6.8V0.9C6.8,0.4,6.5,0,6,0c0,0,0,0,0,0H2.9C2.4,0,2,0.3,2,0.8c0,0,0,0,0,0.1V20l0,0
	c0,0.2,0.1,0.4,0.2,0.6l0,0l0,0c0.2,0.2,0.4,0.2,0.6,0.2h12.4c0.5,0,0.9-0.4,0.9-0.9v-3C16.1,16.5,15.7,16.1,15.2,16.1
	C15.3,16.1,15.2,16.1,15.2,16.1z"/>
<path class="st0" d="M61,0H48.7c-0.2,0-0.4,0.1-0.6,0.2l0,0l0,0c-0.2,0.2-0.2,0.4-0.2,0.6l0,0V20l0,0c0,0.2,0.1,0.4,0.2,0.6l0,0l0,0
	c0.2,0.2,0.4,0.2,0.6,0.2H61c0.5,0,0.9-0.4,0.9-0.9v-3c0-0.5-0.4-0.9-0.8-0.9c0,0,0,0,0,0h-8.4v-3.2H61c0.5,0,0.9-0.4,0.9-0.9V8.9
	c0-0.5-0.4-0.9-0.9-0.9h-8.4V4.8H61c0.5,0,0.8-0.3,0.9-0.8V0.9C61.9,0.4,61.5,0,61,0C61,0,61,0,61,0z"/>
</svg>
