<svg viewBox="0 0 34.2856 41.1431" xmlns="http://www.w3.org/2000/svg"><path d="m34.2856 34.0449a7.7638 7.7638 0 0 1 -1.6738 5.0088 5.0184 5.0184 0 0 1 -4.0312 2.0894h-22.875a5.0165 5.0165 0 0 1 -4.0313-2.0894 7.7613 7.7613 0 0 1 -1.6743-5.0088 38.4914 38.4914 0 0 1 .2275-4.2993 23.1077 23.1077 0 0 1 .8438-4.0713 13.564 13.564 0 0 1 1.5669-3.5093 7.5079 7.5079 0 0 1 2.518-2.3838 6.9564 6.9564 0 0 1 3.6026-.9238 11.5766 11.5766 0 0 0 8.3843 3.4282 11.5781 11.5781 0 0 0 8.3838-3.4282 6.9557 6.9557 0 0 1 3.6025.9238 7.5082 7.5082 0 0 1 2.5181 2.3838 13.601 13.601 0 0 1 1.5669 3.5093 23.1163 23.1163 0 0 1 .8437 4.0713 38.5873 38.5873 0 0 1 .2275 4.2993zm-9.8706-31.0312a9.9075 9.9075 0 0 1 3.0137 7.2719 9.9087 9.9087 0 0 1 -3.0137 7.2725 9.91 9.91 0 0 1 -7.2719 3.0132 9.91 9.91 0 0 1 -7.2725-3.0132 9.9106 9.9106 0 0 1 -3.0137-7.2725 9.9094 9.9094 0 0 1 3.0137-7.2719 9.9087 9.9087 0 0 1 7.2725-3.0137 9.9083 9.9083 0 0 1 7.2719 3.0137z" fill="#dc559a"/></svg>